<?xml version="1.0" encoding="UTF-8"?>
<svg xmlns="http://www.w3.org/2000/svg" xmlns:xlink="http://www.w3.org/1999/xlink" width="284pt" height="85pt" viewBox="0 0 284 85" version="1.1">
<g id="surface1">
<path style="fill:none;stroke-width:0.3985;stroke-linecap:butt;stroke-linejoin:miter;stroke:rgb(0%,0%,0%);stroke-opacity:1;stroke-miterlimit:10;" d="M -113.385 0.00025 L 113.386875 0.00025 " transform="matrix(1.25,0,0,-1.25,141.98125,53.39875)"/>
<path style="fill:none;stroke-width:0.3985;stroke-linecap:butt;stroke-linejoin:miter;stroke:rgb(0%,0%,0%);stroke-opacity:1;stroke-miterlimit:10;" d="M -85.04125 -2.834125 L -85.04125 2.83775 " transform="matrix(1.25,0,0,-1.25,141.98125,53.39875)"/>
<path style="fill:none;stroke-width:0.3985;stroke-linecap:butt;stroke-linejoin:miter;stroke:rgb(0%,0%,0%);stroke-opacity:1;stroke-miterlimit:10;" d="M -56.694375 -2.834125 L -56.694375 2.83775 " transform="matrix(1.25,0,0,-1.25,141.98125,53.39875)"/>
<path style="fill:none;stroke-width:0.3985;stroke-linecap:butt;stroke-linejoin:miter;stroke:rgb(0%,0%,0%);stroke-opacity:1;stroke-miterlimit:10;" d="M 56.693125 -2.834125 L 56.693125 2.83775 " transform="matrix(1.25,0,0,-1.25,141.98125,53.39875)"/>
<path style="fill:none;stroke-width:0.3985;stroke-linecap:butt;stroke-linejoin:miter;stroke:rgb(0%,0%,0%);stroke-opacity:1;stroke-miterlimit:10;" d="M 85.04 -2.834125 L 85.04 2.83775 " transform="matrix(1.25,0,0,-1.25,141.98125,53.39875)"/>
<path style="fill:none;stroke-width:0.3985;stroke-linecap:butt;stroke-linejoin:miter;stroke:rgb(0%,0%,0%);stroke-opacity:1;stroke-dasharray:2.98883,1.99255;stroke-miterlimit:10;" d="M -85.04125 0.00025 C -65.12875 0.00025 -76.606875 42.519 -56.694375 42.519 L 56.693125 42.519 C 76.605625 42.519 65.1275 0.00025 85.04 0.00025 " transform="matrix(1.25,0,0,-1.25,141.98125,53.39875)"/>
<path style=" stroke:none;fill-rule:nonzero;fill:rgb(0%,0%,0%);fill-opacity:1;" d="M 133.179688 21.550781 L 133.179688 8.835938 C 133.179688 8.640625 133.179688 8.386719 132.90625 8.386719 C 132.632812 8.386719 132.632812 8.640625 132.632812 8.835938 L 132.632812 21.550781 C 132.632812 21.746094 132.632812 22 132.90625 22 C 133.179688 22 133.179688 21.746094 133.179688 21.550781 Z M 133.179688 21.550781 "/>
<path style=" stroke:none;fill-rule:nonzero;fill:rgb(0%,0%,0%);fill-opacity:1;" d="M 147.007812 17.9375 L 148.746094 9.792969 C 148.84375 9.363281 148.804688 9.148438 148.238281 9.148438 L 147.105469 9.148438 C 146.753906 9.148438 146.402344 9.167969 146.050781 9.734375 L 143.316406 14.148438 C 142.886719 14.832031 142.105469 16.101562 141.910156 16.570312 L 141.890625 16.570312 C 141.871094 16.082031 141.597656 14.734375 141.460938 14.011719 L 140.640625 9.695312 C 140.523438 9.148438 140.09375 9.148438 139.839844 9.148438 L 138.707031 9.148438 C 138.21875 9.148438 138.023438 9.285156 137.90625 9.792969 L 136.167969 17.9375 C 136.089844 18.445312 136.1875 18.601562 136.695312 18.601562 L 137.066406 18.601562 C 137.574219 18.601562 137.75 18.425781 137.847656 17.9375 L 139.351562 10.90625 L 139.371094 10.90625 C 139.390625 11.511719 139.683594 13.035156 139.839844 13.835938 L 140.601562 17.722656 C 140.71875 18.308594 141.050781 18.308594 141.5 18.308594 C 141.96875 18.308594 142.300781 18.308594 142.671875 17.722656 L 145.328125 13.425781 C 145.523438 13.113281 146.65625 11.257812 146.832031 10.90625 L 145.347656 17.9375 C 145.25 18.386719 145.289062 18.601562 145.855469 18.601562 L 146.226562 18.601562 C 146.734375 18.601562 146.929688 18.425781 147.007812 17.9375 Z M 147.007812 17.9375 "/>
<path style=" stroke:none;fill-rule:nonzero;fill:rgb(0%,0%,0%);fill-opacity:1;" d="M 151.332031 21.550781 L 151.332031 8.835938 C 151.332031 8.640625 151.332031 8.386719 151.058594 8.386719 C 150.785156 8.386719 150.785156 8.640625 150.785156 8.835938 L 150.785156 21.550781 C 150.785156 21.746094 150.785156 22 151.058594 22 C 151.332031 22 151.332031 21.746094 151.332031 21.550781 Z M 151.332031 21.550781 "/>
<path style="fill:none;stroke-width:0.3985;stroke-linecap:butt;stroke-linejoin:miter;stroke:rgb(0%,0%,0%);stroke-opacity:1;stroke-miterlimit:10;" d="M -56.694375 -4.981 C -57.29125 -6.17475 -58.685 -6.971625 -60.67875 -6.971625 L -66.881875 -6.971625 C -68.8725 -6.971625 -70.269375 -7.7685 -70.86625 -8.965375 C -71.463125 -7.7685 -72.856875 -6.971625 -74.850625 -6.971625 L -81.05375 -6.971625 C -83.044375 -6.971625 -84.444375 -6.17475 -85.04125 -4.981 " transform="matrix(1.25,0,0,-1.25,141.98125,53.39875)"/>
<path style=" stroke:none;fill-rule:nonzero;fill:rgb(0%,0%,0%);fill-opacity:1;" d="M 54.785156 77.25 L 53.613281 77.25 C 53.457031 77.25 53.28125 77.269531 53.125 77.269531 L 52.402344 77.269531 C 52.597656 76.507812 52.96875 75.863281 53.476562 75.023438 C 54.023438 74.085938 54.609375 73.070312 54.609375 71.9375 C 54.609375 70.023438 52.773438 68.460938 50.46875 68.460938 C 48.105469 68.460938 46.308594 70.042969 46.308594 71.9375 C 46.308594 73.070312 46.875 74.046875 47.578125 75.238281 C 48.085938 76.097656 48.359375 76.664062 48.515625 77.269531 L 47.792969 77.269531 C 47.636719 77.269531 47.460938 77.25 47.304688 77.25 L 46.152344 77.25 L 46.152344 78.226562 L 49.492188 78.226562 C 49.472656 77.542969 49.355469 76.820312 48.613281 75.277344 C 48.066406 74.183594 47.519531 73.070312 47.519531 71.9375 C 47.519531 70.394531 48.828125 69.300781 50.449219 69.300781 C 52.128906 69.300781 53.398438 70.414062 53.398438 71.9375 C 53.398438 73.011719 52.929688 74.027344 52.402344 75.121094 C 51.835938 76.292969 51.445312 77.132812 51.445312 78.226562 L 54.785156 78.226562 Z M 54.785156 77.25 "/>
<path style=" stroke:none;fill-rule:nonzero;fill:rgb(0%,0%,0%);fill-opacity:1;" d="M 59.90625 80.171875 C 59.90625 80.199219 59.898438 80.222656 59.886719 80.25 C 59.871094 80.261719 59.851562 80.277344 59.828125 80.289062 C 59.800781 80.296875 59.761719 80.308594 59.710938 80.308594 C 59.671875 80.316406 59.617188 80.328125 59.554688 80.328125 C 59.488281 80.328125 59.429688 80.316406 59.378906 80.308594 C 59.339844 80.308594 59.300781 80.296875 59.261719 80.289062 C 59.234375 80.277344 59.214844 80.261719 59.203125 80.25 C 59.1875 80.222656 59.183594 80.199219 59.183594 80.171875 L 59.183594 79.585938 C 58.960938 79.832031 58.71875 80.027344 58.460938 80.171875 C 58.210938 80.3125 57.945312 80.386719 57.660156 80.386719 C 57.332031 80.386719 57.054688 80.316406 56.820312 80.191406 C 56.597656 80.0625 56.414062 79.890625 56.273438 79.683594 C 56.128906 79.476562 56.023438 79.226562 55.960938 78.941406 C 55.894531 78.640625 55.863281 78.335938 55.863281 78.023438 C 55.863281 77.644531 55.902344 77.308594 55.980469 77.007812 C 56.070312 76.695312 56.195312 76.433594 56.351562 76.226562 C 56.507812 76.003906 56.703125 75.835938 56.9375 75.71875 C 57.171875 75.601562 57.445312 75.542969 57.757812 75.542969 C 58.015625 75.542969 58.25 75.601562 58.460938 75.71875 C 58.679688 75.835938 58.894531 76 59.105469 76.207031 L 59.105469 73.667969 C 59.105469 73.640625 59.105469 73.621094 59.105469 73.609375 C 59.117188 73.582031 59.136719 73.5625 59.164062 73.550781 C 59.203125 73.539062 59.246094 73.53125 59.300781 73.53125 C 59.351562 73.519531 59.417969 73.511719 59.496094 73.511719 C 59.574219 73.511719 59.636719 73.519531 59.691406 73.53125 C 59.742188 73.53125 59.78125 73.539062 59.808594 73.550781 C 59.847656 73.5625 59.871094 73.582031 59.886719 73.609375 C 59.898438 73.621094 59.90625 73.640625 59.90625 73.667969 Z M 59.105469 77.066406 C 58.882812 76.804688 58.667969 76.605469 58.460938 76.460938 C 58.265625 76.316406 58.054688 76.246094 57.835938 76.246094 C 57.625 76.246094 57.449219 76.296875 57.308594 76.402344 C 57.164062 76.492188 57.046875 76.617188 56.957031 76.773438 C 56.863281 76.929688 56.800781 77.113281 56.761719 77.320312 C 56.722656 77.515625 56.703125 77.71875 56.703125 77.925781 C 56.703125 78.148438 56.714844 78.367188 56.742188 78.589844 C 56.78125 78.796875 56.839844 78.988281 56.917969 79.15625 C 57.007812 79.3125 57.125 79.441406 57.269531 79.546875 C 57.410156 79.636719 57.585938 79.683594 57.796875 79.683594 C 57.898438 79.683594 57.996094 79.671875 58.089844 79.644531 C 58.191406 79.617188 58.296875 79.574219 58.402344 79.507812 C 58.503906 79.429688 58.617188 79.339844 58.734375 79.234375 C 58.851562 79.128906 58.972656 78.992188 59.105469 78.824219 Z M 59.105469 77.066406 "/>
<path style="fill:none;stroke-width:0.3985;stroke-linecap:butt;stroke-linejoin:miter;stroke:rgb(0%,0%,0%);stroke-opacity:1;stroke-miterlimit:10;" d="M 56.693125 -4.981 C 56.09625 -6.17475 54.699375 -6.971625 52.70875 -6.971625 L 3.986875 -6.971625 C 1.993125 -6.971625 0.599375 -7.7685 0.0025 -8.965375 C -0.5975 -7.7685 -1.99125 -6.971625 -3.981875 -6.971625 L -52.71 -6.971625 C -54.700625 -6.971625 -56.0975 -6.17475 -56.694375 -4.981 " transform="matrix(1.25,0,0,-1.25,141.98125,53.39875)"/>
<path style=" stroke:none;fill-rule:nonzero;fill:rgb(0%,0%,0%);fill-opacity:1;" d="M 146.296875 78.328125 L 145.125 78.328125 C 144.96875 78.328125 144.792969 78.347656 144.636719 78.347656 L 143.914062 78.347656 C 144.109375 77.585938 144.480469 76.941406 144.988281 76.101562 C 145.535156 75.164062 146.121094 74.148438 146.121094 73.015625 C 146.121094 71.101562 144.285156 69.539062 141.980469 69.539062 C 139.617188 69.539062 137.820312 71.121094 137.820312 73.015625 C 137.820312 74.148438 138.386719 75.125 139.089844 76.316406 C 139.597656 77.175781 139.871094 77.742188 140.027344 78.347656 L 139.304688 78.347656 C 139.148438 78.347656 138.972656 78.328125 138.816406 78.328125 L 137.664062 78.328125 L 137.664062 79.304688 L 141.003906 79.304688 C 140.984375 78.621094 140.867188 77.898438 140.125 76.355469 C 139.578125 75.261719 139.03125 74.148438 139.03125 73.015625 C 139.03125 71.472656 140.339844 70.378906 141.960938 70.378906 C 143.640625 70.378906 144.910156 71.492188 144.910156 73.015625 C 144.910156 74.089844 144.441406 75.105469 143.914062 76.199219 C 143.347656 77.371094 142.957031 78.210938 142.957031 79.304688 L 146.296875 79.304688 Z M 146.296875 78.328125 "/>
<path style="fill:none;stroke-width:0.3985;stroke-linecap:butt;stroke-linejoin:miter;stroke:rgb(0%,0%,0%);stroke-opacity:1;stroke-miterlimit:10;" d="M 85.04 -4.981 C 84.443125 -6.17475 83.049375 -6.971625 81.055625 -6.971625 L 74.8525 -6.971625 C 72.861875 -6.971625 71.465 -7.7685 70.868125 -8.965375 C 70.27125 -7.7685 68.8775 -6.971625 66.88375 -6.971625 L 60.680625 -6.971625 C 58.68375 -6.971625 57.29 -6.17475 56.693125 -4.981 " transform="matrix(1.25,0,0,-1.25,141.98125,53.39875)"/>
<path style=" stroke:none;fill-rule:nonzero;fill:rgb(0%,0%,0%);fill-opacity:1;" d="M 231.949219 77.25 L 230.777344 77.25 C 230.621094 77.25 230.445312 77.269531 230.289062 77.269531 L 229.566406 77.269531 C 229.761719 76.507812 230.132812 75.863281 230.640625 75.023438 C 231.1875 74.085938 231.773438 73.070312 231.773438 71.9375 C 231.773438 70.023438 229.9375 68.460938 227.632812 68.460938 C 225.269531 68.460938 223.472656 70.042969 223.472656 71.9375 C 223.472656 73.070312 224.039062 74.046875 224.742188 75.238281 C 225.25 76.097656 225.523438 76.664062 225.679688 77.269531 L 224.957031 77.269531 C 224.800781 77.269531 224.625 77.25 224.46875 77.25 L 223.316406 77.25 L 223.316406 78.226562 L 226.65625 78.226562 C 226.636719 77.542969 226.519531 76.820312 225.777344 75.277344 C 225.230469 74.183594 224.683594 73.070312 224.683594 71.9375 C 224.683594 70.394531 225.992188 69.300781 227.613281 69.300781 C 229.292969 69.300781 230.5625 70.414062 230.5625 71.9375 C 230.5625 73.011719 230.09375 74.027344 229.566406 75.121094 C 229 76.292969 228.609375 77.132812 228.609375 78.226562 L 231.949219 78.226562 Z M 231.949219 77.25 "/>
<path style=" stroke:none;fill-rule:nonzero;fill:rgb(0%,0%,0%);fill-opacity:1;" d="M 237.070312 80.171875 C 237.070312 80.199219 237.0625 80.222656 237.050781 80.25 C 237.039062 80.261719 237.019531 80.277344 236.992188 80.289062 C 236.964844 80.296875 236.925781 80.308594 236.875 80.308594 C 236.835938 80.316406 236.785156 80.328125 236.71875 80.328125 C 236.652344 80.328125 236.59375 80.316406 236.542969 80.308594 C 236.503906 80.308594 236.464844 80.296875 236.425781 80.289062 C 236.398438 80.277344 236.378906 80.261719 236.367188 80.25 C 236.355469 80.222656 236.347656 80.199219 236.347656 80.171875 L 236.347656 79.585938 C 236.125 79.832031 235.886719 80.027344 235.625 80.171875 C 235.378906 80.3125 235.109375 80.386719 234.824219 80.386719 C 234.5 80.386719 234.21875 80.316406 233.984375 80.191406 C 233.761719 80.0625 233.582031 79.890625 233.4375 79.683594 C 233.292969 79.476562 233.191406 79.226562 233.125 78.941406 C 233.058594 78.640625 233.027344 78.335938 233.027344 78.023438 C 233.027344 77.644531 233.066406 77.308594 233.144531 77.007812 C 233.234375 76.695312 233.359375 76.433594 233.515625 76.226562 C 233.671875 76.003906 233.867188 75.835938 234.101562 75.71875 C 234.335938 75.601562 234.609375 75.542969 234.921875 75.542969 C 235.183594 75.542969 235.417969 75.601562 235.625 75.71875 C 235.847656 75.835938 236.0625 76 236.269531 76.207031 L 236.269531 73.667969 C 236.269531 73.640625 236.269531 73.621094 236.269531 73.609375 C 236.28125 73.582031 236.300781 73.5625 236.328125 73.550781 C 236.367188 73.539062 236.414062 73.53125 236.464844 73.53125 C 236.515625 73.519531 236.582031 73.511719 236.660156 73.511719 C 236.738281 73.511719 236.804688 73.519531 236.855469 73.53125 C 236.90625 73.53125 236.945312 73.539062 236.972656 73.550781 C 237.011719 73.5625 237.039062 73.582031 237.050781 73.609375 C 237.0625 73.621094 237.070312 73.640625 237.070312 73.667969 Z M 236.269531 77.066406 C 236.046875 76.804688 235.832031 76.605469 235.625 76.460938 C 235.429688 76.316406 235.222656 76.246094 235 76.246094 C 234.792969 76.246094 234.617188 76.296875 234.472656 76.402344 C 234.328125 76.492188 234.210938 76.617188 234.121094 76.773438 C 234.03125 76.929688 233.964844 77.113281 233.925781 77.320312 C 233.886719 77.515625 233.867188 77.71875 233.867188 77.925781 C 233.867188 78.148438 233.878906 78.367188 233.90625 78.589844 C 233.945312 78.796875 234.003906 78.988281 234.082031 79.15625 C 234.171875 79.3125 234.289062 79.441406 234.433594 79.546875 C 234.578125 79.636719 234.753906 79.683594 234.960938 79.683594 C 235.066406 79.683594 235.164062 79.671875 235.253906 79.644531 C 235.359375 79.617188 235.460938 79.574219 235.566406 79.507812 C 235.671875 79.429688 235.78125 79.339844 235.898438 79.234375 C 236.015625 79.128906 236.140625 78.992188 236.269531 78.824219 Z M 236.269531 77.066406 "/>
</g>
</svg>
