<?xml version="1.0" encoding="UTF-8"?>
<svg xmlns="http://www.w3.org/2000/svg" xmlns:xlink="http://www.w3.org/1999/xlink" width="484pt" height="186pt" viewBox="0 0 484 186" version="1.1">
<defs>
<clipPath id="clip1">
  <path d="M 3.546875 40 L 148.511719 40 L 148.511719 185.839844 L 3.546875 185.839844 Z M 3.546875 40 "/>
</clipPath>
<clipPath id="clip2">
  <path d="M 75 185 L 76 185 L 76 185.839844 L 75 185.839844 Z M 75 185 "/>
</clipPath>
<clipPath id="clip3">
  <path d="M 25 163 L 126 163 L 126 185.839844 L 25 185.839844 Z M 25 163 "/>
</clipPath>
<clipPath id="clip4">
  <path d="M 3.546875 109 L 148.511719 109 L 148.511719 163.75 L 3.546875 163.75 Z M 3.546875 109 "/>
</clipPath>
<clipPath id="clip5">
  <path d="M 3.546875 80 L 147.5 80 L 147.5 142 L 3.546875 142 Z M 3.546875 80 "/>
</clipPath>
<clipPath id="clip6">
  <path d="M 3.546875 52.5 L 148.511719 52.5 L 148.511719 134 L 3.546875 134 Z M 3.546875 52.5 "/>
</clipPath>
<clipPath id="clip7">
  <path d="M 50 42 L 112 42 L 112 185.839844 L 50 185.839844 Z M 50 42 "/>
</clipPath>
<clipPath id="clip8">
  <path d="M 62 40 L 86 40 L 86 185.839844 L 62 185.839844 Z M 62 40 "/>
</clipPath>
<clipPath id="clip9">
  <path d="M 28 44 L 108.75 44 L 108.75 185.839844 L 28 185.839844 Z M 28 44 "/>
</clipPath>
<clipPath id="clip10">
  <path d="M 172.777344 40 L 317.742188 40 L 317.742188 185.839844 L 172.777344 185.839844 Z M 172.777344 40 "/>
</clipPath>
<clipPath id="clip11">
  <path d="M 244 185 L 245 185 L 245 185.839844 L 244 185.839844 Z M 244 185 "/>
</clipPath>
<clipPath id="clip12">
  <path d="M 194 163 L 295 163 L 295 185.839844 L 194 185.839844 Z M 194 163 "/>
</clipPath>
<clipPath id="clip13">
  <path d="M 172.777344 109 L 317.742188 109 L 317.742188 163.75 L 172.777344 163.75 Z M 172.777344 109 "/>
</clipPath>
<clipPath id="clip14">
  <path d="M 172.777344 80 L 317 80 L 317 142 L 172.777344 142 Z M 172.777344 80 "/>
</clipPath>
<clipPath id="clip15">
  <path d="M 172.777344 52.5 L 317.742188 52.5 L 317.742188 134 L 172.777344 134 Z M 172.777344 52.5 "/>
</clipPath>
<clipPath id="clip16">
  <path d="M 219 42 L 281 42 L 281 185.839844 L 219 185.839844 Z M 219 42 "/>
</clipPath>
<clipPath id="clip17">
  <path d="M 231.25 40 L 256 40 L 256 185.839844 L 231.25 185.839844 Z M 231.25 40 "/>
</clipPath>
<clipPath id="clip18">
  <path d="M 197.5 44 L 277.5 44 L 277.5 185.839844 L 197.5 185.839844 Z M 197.5 44 "/>
</clipPath>
<clipPath id="clip19">
  <path d="M 342.007812 40 L 483.75 40 L 483.75 185.839844 L 342.007812 185.839844 Z M 342.007812 40 "/>
</clipPath>
<clipPath id="clip20">
  <path d="M 413 185 L 414 185 L 414 185.839844 L 413 185.839844 Z M 413 185 "/>
</clipPath>
<clipPath id="clip21">
  <path d="M 363.75 163 L 463.75 163 L 463.75 185.839844 L 363.75 185.839844 Z M 363.75 163 "/>
</clipPath>
<clipPath id="clip22">
  <path d="M 342.007812 109 L 483.75 109 L 483.75 163.75 L 342.007812 163.75 Z M 342.007812 109 "/>
</clipPath>
<clipPath id="clip23">
  <path d="M 342.007812 80 L 483.75 80 L 483.75 142 L 342.007812 142 Z M 342.007812 80 "/>
</clipPath>
<clipPath id="clip24">
  <path d="M 342.007812 52.5 L 483.75 52.5 L 483.75 134 L 342.007812 134 Z M 342.007812 52.5 "/>
</clipPath>
<clipPath id="clip25">
  <path d="M 388.75 42 L 450 42 L 450 185.839844 L 388.75 185.839844 Z M 388.75 42 "/>
</clipPath>
<clipPath id="clip26">
  <path d="M 400 40 L 425 40 L 425 185.839844 L 400 185.839844 Z M 400 40 "/>
</clipPath>
<clipPath id="clip27">
  <path d="M 367 44 L 447 44 L 447 185.839844 L 367 185.839844 Z M 367 44 "/>
</clipPath>
</defs>
<g id="surface1">
<path style=" stroke:none;fill-rule:nonzero;fill:rgb(0%,0%,0%);fill-opacity:1;" d="M 4.175781 14.21875 C 3.765625 13.847656 2.886719 13.027344 2.320312 11.269531 C 1.949219 10.195312 1.792969 8.945312 1.792969 7.753906 C 1.792969 5.058594 2.496094 2.910156 3.980469 1.40625 C 4.195312 1.191406 4.214844 1.191406 4.214844 1.113281 C 4.214844 0.976562 4.078125 0.9375 3.960938 0.9375 C 3.726562 0.9375 3.160156 1.425781 2.90625 1.660156 C 0.777344 3.769531 0.464844 6.289062 0.464844 7.734375 C 0.464844 9.433594 0.914062 10.9375 1.558594 12.070312 C 2.457031 13.632812 3.707031 14.550781 3.960938 14.550781 C 4.078125 14.550781 4.214844 14.511719 4.214844 14.355469 C 4.214844 14.296875 4.175781 14.238281 4.175781 14.21875 Z M 4.175781 14.21875 "/>
<path style=" stroke:none;fill-rule:nonzero;fill:rgb(0%,0%,0%);fill-opacity:1;" d="M 10.195312 10.097656 C 10.195312 10.527344 10.195312 11.152344 11.621094 11.152344 L 12.265625 11.152344 C 12.539062 11.152344 12.695312 11.152344 12.695312 10.820312 C 12.695312 10.507812 12.519531 10.507812 12.34375 10.507812 C 11.523438 10.488281 11.523438 10.3125 11.523438 10 L 11.523438 7.070312 C 11.523438 5.859375 10.546875 4.980469 8.515625 4.980469 C 7.734375 4.980469 6.074219 5.039062 6.074219 6.230469 C 6.074219 6.835938 6.5625 7.089844 6.933594 7.089844 C 7.34375 7.089844 7.792969 6.796875 7.792969 6.230469 C 7.792969 5.820312 7.519531 5.585938 7.480469 5.566406 C 7.871094 5.488281 8.300781 5.46875 8.457031 5.46875 C 9.492188 5.46875 9.960938 6.035156 9.960938 7.070312 L 9.960938 7.539062 C 9.003906 7.578125 5.527344 7.695312 5.527344 9.6875 C 5.527344 10.996094 7.226562 11.230469 8.164062 11.230469 C 9.257812 11.230469 9.902344 10.683594 10.195312 10.097656 Z M 9.960938 7.96875 L 9.960938 9.257812 C 9.960938 10.566406 8.710938 10.742188 8.378906 10.742188 C 7.675781 10.742188 7.128906 10.273438 7.128906 9.667969 C 7.128906 8.203125 9.277344 8.007812 9.960938 7.96875 Z M 9.960938 7.96875 "/>
<path style=" stroke:none;fill-rule:nonzero;fill:rgb(0%,0%,0%);fill-opacity:1;" d="M 17.332031 7.753906 C 17.332031 6.035156 16.882812 4.53125 16.238281 3.417969 C 15.339844 1.835938 14.089844 0.9375 13.835938 0.9375 C 13.738281 0.9375 13.601562 0.976562 13.601562 1.113281 C 13.601562 1.191406 13.601562 1.210938 13.835938 1.425781 C 15.535156 3.183594 16.003906 5.585938 16.003906 7.734375 C 16.003906 10.410156 15.320312 12.558594 13.816406 14.0625 C 13.601562 14.277344 13.601562 14.296875 13.601562 14.355469 C 13.601562 14.511719 13.738281 14.550781 13.835938 14.550781 C 14.070312 14.550781 14.636719 14.042969 14.890625 13.808594 C 17.019531 11.699219 17.332031 9.179688 17.332031 7.753906 Z M 17.332031 7.753906 "/>
<g clip-path="url(#clip1)" clip-rule="nonzero">
<path style="fill:none;stroke-width:0.3985;stroke-linecap:butt;stroke-linejoin:miter;stroke:rgb(69.803922%,69.803922%,69.803922%);stroke-opacity:1;stroke-miterlimit:10;" d="M 55.277 -0.002 C 55.277 30.52925 30.527 55.276125 -0.001125 55.276125 C -30.526125 55.276125 -55.276125 30.52925 -55.276125 -0.002 C -55.276125 -30.527 -30.526125 -55.273875 -0.001125 -55.273875 C 30.527 -55.273875 55.277 -30.527 55.277 -0.002 Z M 55.277 -0.002 " transform="matrix(1.25,0,0,-1.25,75.27875,116.4975)"/>
</g>
<path style="fill:none;stroke-width:0.3985;stroke-linecap:butt;stroke-linejoin:miter;stroke:rgb(69.803922%,69.803922%,69.803922%);stroke-opacity:1;stroke-dasharray:2.98883,1.99255;stroke-miterlimit:10;" d="M -0.001125 -50.09575 L -0.001125 -50.09575 " transform="matrix(1.25,0,0,-1.25,75.27875,116.4975)"/>
<g clip-path="url(#clip2)" clip-rule="nonzero">
<path style="fill:none;stroke-width:0.3985;stroke-linecap:butt;stroke-linejoin:miter;stroke:rgb(69.803922%,69.803922%,69.803922%);stroke-opacity:1;stroke-dasharray:2.98883,1.99255;stroke-miterlimit:10;" d="M -0.001125 -55.0645 L -0.001125 -55.0645 " transform="matrix(1.25,0,0,-1.25,75.27875,116.4975)"/>
</g>
<g clip-path="url(#clip3)" clip-rule="nonzero">
<path style="fill:none;stroke-width:0.3985;stroke-linecap:butt;stroke-linejoin:miter;stroke:rgb(69.803922%,69.803922%,69.803922%);stroke-opacity:1;stroke-dasharray:2.98883,1.99255;stroke-miterlimit:10;" d="M 34.280125 -43.361375 C 25.402 -50.38325 10.661375 -54.15825 -4.382375 -53.25825 C -16.344875 -52.548875 -27.223 -48.94575 -34.282375 -43.361375 " transform="matrix(1.25,0,0,-1.25,75.27875,116.4975)"/>
</g>
<path style="fill:none;stroke-width:0.3985;stroke-linecap:butt;stroke-linejoin:miter;stroke:rgb(69.803922%,69.803922%,69.803922%);stroke-opacity:1;stroke-dasharray:2.98883,1.99255;stroke-miterlimit:10;" d="M 50.2395 -23.052 C 42.952 -38.9645 14.555125 -48.477 -13.19175 -44.302 C -31.31675 -41.57075 -45.476125 -33.448875 -50.238625 -23.052 " transform="matrix(1.25,0,0,-1.25,75.27875,116.4975)"/>
<g clip-path="url(#clip4)" clip-rule="nonzero">
<path style="fill:none;stroke-width:0.3985;stroke-linecap:butt;stroke-linejoin:miter;stroke:rgb(69.803922%,69.803922%,69.803922%);stroke-opacity:1;stroke-dasharray:2.98883,1.99255;stroke-miterlimit:10;" d="M 55.277 -0.002 C 55.277 -17.50825 30.527 -31.705125 -0.001125 -31.705125 C -30.526125 -31.705125 -55.276125 -17.50825 -55.276125 -0.002 " transform="matrix(1.25,0,0,-1.25,75.27875,116.4975)"/>
</g>
<g clip-path="url(#clip5)" clip-rule="nonzero">
<path style="fill:none;stroke-width:0.3985;stroke-linecap:butt;stroke-linejoin:miter;stroke:rgb(69.803922%,69.803922%,69.803922%);stroke-opacity:1;stroke-dasharray:2.98883,1.99255;stroke-miterlimit:10;" d="M 50.2395 23.05425 C 57.523875 7.138625 40.936375 -9.148875 13.192625 -13.330125 C -14.55425 -17.505125 -42.95425 -7.992625 -50.238625 7.919875 C -52.507375 12.87925 -52.507375 18.09175 -50.238625 23.05425 " transform="matrix(1.25,0,0,-1.25,75.27875,116.4975)"/>
</g>
<path style="fill:none;stroke-width:0.3985;stroke-linecap:butt;stroke-linejoin:miter;stroke:rgb(69.803922%,69.803922%,69.803922%);stroke-opacity:1;stroke-dasharray:2.98883,1.99255;stroke-miterlimit:10;" d="M 34.280125 43.363625 C 48.00825 32.50425 43.786375 17.31675 24.855125 9.444875 C 5.92075 1.569875 -20.55425 3.99175 -34.282375 14.851125 C -45.026125 23.351125 -45.026125 34.857375 -34.282375 43.363625 " transform="matrix(1.25,0,0,-1.25,75.27875,116.4975)"/>
<path style="fill:none;stroke-width:0.3985;stroke-linecap:butt;stroke-linejoin:miter;stroke:rgb(69.803922%,69.803922%,69.803922%);stroke-opacity:1;stroke-dasharray:2.98883,1.99255;stroke-miterlimit:10;" d="M -0.001125 55.06675 C 15.2645 55.06675 27.636375 47.96675 27.636375 39.213625 C 27.636375 30.457375 15.2645 23.363625 -0.001125 23.363625 C -15.26675 23.363625 -27.6355 30.457375 -27.6355 39.213625 C -27.6355 47.96675 -15.26675 55.06675 -0.001125 55.06675 " transform="matrix(1.25,0,0,-1.25,75.27875,116.4975)"/>
<path style="fill:none;stroke-width:0.3985;stroke-linecap:butt;stroke-linejoin:miter;stroke:rgb(69.803922%,69.803922%,69.803922%);stroke-opacity:1;stroke-dasharray:2.98883,1.99255;stroke-miterlimit:10;" d="M -0.001125 50.098 C 5.302 50.098 9.598875 47.632375 9.598875 44.59175 C 9.598875 41.551125 5.302 39.0855 -0.001125 39.0855 C -5.301125 39.0855 -9.598 41.551125 -9.598 44.59175 C -9.598 47.632375 -5.301125 50.098 -0.001125 50.098 " transform="matrix(1.25,0,0,-1.25,75.27875,116.4975)"/>
<g clip-path="url(#clip6)" clip-rule="nonzero">
<path style="fill:none;stroke-width:0.3985;stroke-linecap:butt;stroke-linejoin:miter;stroke:rgb(69.803922%,69.803922%,69.803922%);stroke-opacity:1;stroke-dasharray:2.98883,1.99255;stroke-miterlimit:10;" d="M 54.64575 -8.3145 C 58.386375 16.31675 36.95825 40.00425 6.777 44.598 C -23.401125 49.1855 -50.901125 32.944875 -54.644875 8.31675 " transform="matrix(1.25,0,0,-1.25,75.27875,116.4975)"/>
</g>
<path style="fill:none;stroke-width:0.3985;stroke-linecap:butt;stroke-linejoin:miter;stroke:rgb(69.803922%,69.803922%,69.803922%);stroke-opacity:1;stroke-dasharray:2.98883,1.99255;stroke-miterlimit:10;" d="M 35.027 -42.755125 C 50.87075 -29.773875 48.036375 -0.105125 28.686375 23.507375 C 9.342625 47.119875 -19.182375 55.738625 -35.026125 42.757375 " transform="matrix(1.25,0,0,-1.25,75.27875,116.4975)"/>
<g clip-path="url(#clip7)" clip-rule="nonzero">
<path style="fill:none;stroke-width:0.3985;stroke-linecap:butt;stroke-linejoin:miter;stroke:rgb(69.803922%,69.803922%,69.803922%);stroke-opacity:1;stroke-dasharray:2.98883,1.99255;stroke-miterlimit:10;" d="M 14.273875 -53.39575 C 24.4895 -50.677 26.373875 -24.567625 18.492625 4.926125 C 10.605125 34.41675 -4.063625 56.11675 -14.273 53.398 " transform="matrix(1.25,0,0,-1.25,75.27875,116.4975)"/>
</g>
<g clip-path="url(#clip8)" clip-rule="nonzero">
<path style="fill:none;stroke-width:0.3985;stroke-linecap:butt;stroke-linejoin:miter;stroke:rgb(69.803922%,69.803922%,69.803922%);stroke-opacity:1;stroke-dasharray:2.98883,1.99255;stroke-miterlimit:10;" d="M -2.769875 -55.205125 C -4.944875 -55.1145 -5.473 -30.32075 -3.94175 0.16675 C -2.413625 30.65425 0.5895 55.294875 2.77075 55.207375 " transform="matrix(1.25,0,0,-1.25,75.27875,116.4975)"/>
</g>
<g clip-path="url(#clip9)" clip-rule="nonzero">
<path style="fill:none;stroke-width:0.3985;stroke-linecap:butt;stroke-linejoin:miter;stroke:rgb(69.803922%,69.803922%,69.803922%);stroke-opacity:1;stroke-dasharray:2.98883,1.99255;stroke-miterlimit:10;" d="M -20.588625 -51.292625 C -33.901125 -45.961375 -35.47925 -18.673875 -24.1105 9.65425 C -12.738625 37.988625 7.273875 56.62925 20.5895 51.294875 " transform="matrix(1.25,0,0,-1.25,75.27875,116.4975)"/>
</g>
<path style="fill:none;stroke-width:0.3985;stroke-linecap:butt;stroke-linejoin:miter;stroke:rgb(69.803922%,69.803922%,69.803922%);stroke-opacity:1;stroke-dasharray:2.98883,1.99255;stroke-miterlimit:10;" d="M -42.898 -34.855125 C -57.188625 -17.261375 -49.563625 12.60425 -25.86675 31.85425 C -2.176125 51.10425 28.6145 52.448 42.902 34.85425 " transform="matrix(1.25,0,0,-1.25,75.27875,116.4975)"/>
<path style="fill:none;stroke-width:0.3985;stroke-linecap:butt;stroke-linejoin:miter;stroke:rgb(0%,0%,0%);stroke-opacity:1;stroke-miterlimit:10;" d="M -0.001125 -0.002 L -0.001125 45.27925 " transform="matrix(1.25,0,0,-1.25,75.27875,116.4975)"/>
<path style="fill:none;stroke-width:0.3985;stroke-linecap:butt;stroke-linejoin:miter;stroke:rgb(0%,0%,100%);stroke-opacity:1;stroke-dasharray:2.98883,1.99255;stroke-miterlimit:10;" d="M 35.530125 34.6855 C 35.530125 45.94175 19.623875 55.06675 -0.001125 55.06675 C -19.619875 55.06675 -35.532375 45.94175 -35.532375 34.6855 C -35.532375 23.42925 -19.619875 14.307375 -0.001125 14.307375 C 19.623875 14.307375 35.530125 23.42925 35.530125 34.6855 " transform="matrix(1.25,0,0,-1.25,75.27875,116.4975)"/>
<path style="fill:none;stroke-width:0.3985;stroke-linecap:butt;stroke-linejoin:miter;stroke:rgb(0%,0%,100%);stroke-opacity:1;stroke-miterlimit:10;" d="M 29.105125 22.994875 C 36.386375 28.9605 37.567625 36.701125 32.202 43.301125 C 29.12075 47.088625 24.077 50.244875 21.17075 51.207375 " transform="matrix(1.25,0,0,-1.25,75.27875,116.4975)"/>
<path style=" stroke:none;fill-rule:nonzero;fill:rgb(0%,0%,100%);fill-opacity:1;" d="M 97.484375 51.078125 C 98.667969 51.734375 100.484375 53.125 101.632812 54.417969 L 102.804688 50.875 C 101.109375 51.230469 98.824219 51.257812 97.484375 51.078125 "/>
<path style="fill:none;stroke-width:0.3985;stroke-linecap:butt;stroke-linejoin:miter;stroke:rgb(0%,0%,0%);stroke-opacity:1;stroke-miterlimit:10;" d="M -0.001125 45.27925 L -0.001125 64.3355 " transform="matrix(1.25,0,0,-1.25,75.27875,116.4975)"/>
<path style=" stroke:none;fill-rule:nonzero;fill:rgb(0%,0%,0%);fill-opacity:1;" d="M 75.277344 31.597656 C 75.03125 32.925781 74.28125 35.082031 73.414062 36.578125 L 77.148438 36.578125 C 76.273438 35.082031 75.527344 32.925781 75.277344 31.597656 "/>
<path style=" stroke:none;fill-rule:nonzero;fill:rgb(0%,0%,0%);fill-opacity:1;" d="M 58.054688 34.566406 L 59.792969 26.421875 C 59.890625 25.992188 59.832031 25.777344 59.285156 25.777344 L 58.582031 25.777344 C 58.074219 25.777344 57.898438 25.953125 57.78125 26.421875 L 57.097656 29.664062 L 52.78125 29.664062 L 53.464844 26.421875 C 53.5625 25.992188 53.523438 25.777344 52.957031 25.777344 L 52.253906 25.777344 C 51.765625 25.777344 51.570312 25.914062 51.453125 26.421875 L 49.714844 34.566406 C 49.636719 35.074219 49.734375 35.230469 50.242188 35.230469 L 50.945312 35.230469 C 51.453125 35.230469 51.628906 35.054688 51.726562 34.566406 L 52.507812 30.953125 L 56.824219 30.953125 L 56.042969 34.566406 C 55.945312 35.015625 56.003906 35.230469 56.570312 35.230469 L 57.253906 35.230469 C 57.78125 35.230469 57.957031 35.054688 58.054688 34.566406 Z M 58.054688 34.566406 "/>
<path style=" stroke:none;fill-rule:nonzero;fill:rgb(0%,0%,0%);fill-opacity:1;" d="M 63.671875 34.828125 C 63.671875 34.960938 63.636719 35.050781 63.574219 35.101562 C 63.519531 35.15625 63.449219 35.179688 63.359375 35.179688 L 60.488281 35.179688 C 60.488281 35.429688 60.507812 35.648438 60.546875 35.84375 C 60.597656 36.039062 60.683594 36.210938 60.800781 36.351562 C 60.917969 36.496094 61.066406 36.605469 61.25 36.683594 C 61.429688 36.75 61.652344 36.78125 61.914062 36.78125 C 62.121094 36.78125 62.304688 36.769531 62.460938 36.742188 C 62.628906 36.703125 62.773438 36.664062 62.890625 36.625 C 63.007812 36.574219 63.105469 36.535156 63.183594 36.507812 C 63.261719 36.46875 63.320312 36.449219 63.359375 36.449219 C 63.382812 36.449219 63.402344 36.457031 63.417969 36.46875 C 63.441406 36.484375 63.457031 36.503906 63.457031 36.527344 C 63.46875 36.542969 63.476562 36.574219 63.476562 36.625 C 63.488281 36.664062 63.496094 36.710938 63.496094 36.761719 C 63.496094 36.800781 63.488281 36.839844 63.476562 36.878906 C 63.476562 36.90625 63.476562 36.933594 63.476562 36.957031 C 63.476562 36.984375 63.46875 37.011719 63.457031 37.035156 C 63.441406 37.050781 63.421875 37.070312 63.398438 37.09375 C 63.382812 37.109375 63.332031 37.132812 63.242188 37.171875 C 63.164062 37.210938 63.050781 37.25 62.910156 37.289062 C 62.765625 37.328125 62.601562 37.355469 62.421875 37.386719 C 62.238281 37.425781 62.042969 37.445312 61.835938 37.445312 C 61.46875 37.445312 61.152344 37.390625 60.878906 37.289062 C 60.605469 37.1875 60.375 37.035156 60.195312 36.839844 C 60.011719 36.644531 59.867188 36.398438 59.765625 36.097656 C 59.671875 35.800781 59.628906 35.449219 59.628906 35.042969 C 59.628906 34.667969 59.671875 34.328125 59.765625 34.027344 C 59.867188 33.730469 60.011719 33.476562 60.195312 33.265625 C 60.390625 33.058594 60.617188 32.894531 60.878906 32.777344 C 61.136719 32.660156 61.425781 32.601562 61.738281 32.601562 C 62.089844 32.601562 62.382812 32.660156 62.617188 32.777344 C 62.863281 32.882812 63.066406 33.03125 63.222656 33.226562 C 63.378906 33.410156 63.488281 33.632812 63.554688 33.890625 C 63.632812 34.140625 63.671875 34.40625 63.671875 34.691406 Z M 62.871094 34.59375 C 62.882812 34.179688 62.785156 33.851562 62.578125 33.617188 C 62.382812 33.371094 62.09375 33.246094 61.71875 33.246094 C 61.507812 33.246094 61.328125 33.285156 61.171875 33.363281 C 61.027344 33.429688 60.902344 33.527344 60.800781 33.65625 C 60.707031 33.773438 60.628906 33.917969 60.566406 34.085938 C 60.511719 34.242188 60.488281 34.414062 60.488281 34.59375 Z M 62.871094 34.59375 "/>
<path style=" stroke:none;fill-rule:nonzero;fill:rgb(0%,0%,0%);fill-opacity:1;" d="M 69.996094 31.019531 C 69.996094 31.125 69.984375 31.203125 69.976562 31.253906 C 69.960938 31.292969 69.925781 31.3125 69.878906 31.3125 C 69.847656 31.3125 69.820312 31.308594 69.78125 31.292969 C 69.75 31.28125 69.710938 31.269531 69.664062 31.253906 C 69.609375 31.230469 69.550781 31.210938 69.488281 31.195312 C 69.417969 31.183594 69.351562 31.175781 69.273438 31.175781 C 69.023438 31.175781 68.847656 31.261719 68.746094 31.429688 C 68.652344 31.585938 68.609375 31.847656 68.609375 32.210938 L 68.609375 32.699219 L 69.585938 32.699219 C 69.609375 32.699219 69.628906 32.707031 69.644531 32.71875 C 69.667969 32.734375 69.6875 32.753906 69.703125 32.777344 C 69.726562 32.804688 69.742188 32.84375 69.742188 32.894531 C 69.75 32.933594 69.761719 32.980469 69.761719 33.03125 C 69.761719 33.148438 69.742188 33.234375 69.703125 33.285156 C 69.671875 33.339844 69.632812 33.363281 69.585938 33.363281 L 68.609375 33.363281 L 68.609375 37.230469 C 68.609375 37.257812 68.597656 37.277344 68.589844 37.289062 C 68.574219 37.304688 68.550781 37.324219 68.511719 37.347656 C 68.480469 37.355469 68.441406 37.367188 68.394531 37.367188 C 68.339844 37.375 68.277344 37.386719 68.199219 37.386719 C 68.121094 37.386719 68.050781 37.375 68.003906 37.367188 C 67.949219 37.367188 67.910156 37.355469 67.886719 37.347656 C 67.855469 37.324219 67.835938 37.304688 67.828125 37.289062 C 67.8125 37.277344 67.808594 37.257812 67.808594 37.230469 L 67.808594 33.363281 L 65.835938 33.363281 L 65.835938 37.230469 C 65.835938 37.257812 65.824219 37.277344 65.816406 37.289062 C 65.800781 37.304688 65.777344 37.324219 65.738281 37.347656 C 65.707031 37.355469 65.667969 37.367188 65.621094 37.367188 C 65.566406 37.375 65.503906 37.386719 65.425781 37.386719 C 65.347656 37.386719 65.277344 37.375 65.230469 37.367188 C 65.175781 37.367188 65.132812 37.355469 65.09375 37.347656 C 65.0625 37.324219 65.042969 37.304688 65.035156 37.289062 C 65.019531 37.277344 65.015625 37.257812 65.015625 37.230469 L 65.015625 33.363281 L 64.390625 33.363281 C 64.335938 33.363281 64.296875 33.339844 64.273438 33.285156 C 64.242188 33.234375 64.234375 33.148438 64.234375 33.03125 C 64.234375 32.980469 64.234375 32.933594 64.234375 32.894531 C 64.242188 32.84375 64.257812 32.804688 64.273438 32.777344 C 64.28125 32.753906 64.296875 32.734375 64.3125 32.71875 C 64.335938 32.707031 64.359375 32.699219 64.390625 32.699219 L 65.015625 32.699219 L 65.015625 32.289062 C 65.015625 31.992188 65.039062 31.730469 65.09375 31.507812 C 65.15625 31.289062 65.25 31.113281 65.367188 30.980469 C 65.484375 30.839844 65.625 30.734375 65.796875 30.667969 C 65.976562 30.605469 66.1875 30.570312 66.421875 30.570312 C 66.5625 30.570312 66.683594 30.585938 66.792969 30.609375 C 66.894531 30.625 66.976562 30.648438 67.046875 30.6875 C 67.085938 30.703125 67.109375 30.722656 67.125 30.746094 C 67.148438 30.761719 67.167969 30.78125 67.183594 30.804688 C 67.191406 30.832031 67.203125 30.871094 67.203125 30.921875 C 67.210938 30.960938 67.222656 31.015625 67.222656 31.078125 C 67.222656 31.183594 67.207031 31.261719 67.183594 31.3125 C 67.167969 31.351562 67.144531 31.371094 67.105469 31.371094 C 67.074219 31.371094 67.046875 31.367188 67.007812 31.351562 C 66.976562 31.339844 66.9375 31.328125 66.890625 31.3125 C 66.835938 31.289062 66.777344 31.269531 66.714844 31.253906 C 66.644531 31.242188 66.566406 31.234375 66.480469 31.234375 C 66.246094 31.234375 66.074219 31.320312 65.972656 31.488281 C 65.878906 31.644531 65.835938 31.90625 65.835938 32.269531 L 65.835938 32.699219 L 67.808594 32.699219 L 67.808594 32.230469 C 67.808594 31.933594 67.832031 31.671875 67.886719 31.449219 C 67.949219 31.230469 68.042969 31.054688 68.160156 30.921875 C 68.277344 30.78125 68.417969 30.675781 68.589844 30.609375 C 68.769531 30.546875 68.96875 30.511719 69.195312 30.511719 C 69.335938 30.511719 69.457031 30.527344 69.566406 30.550781 C 69.683594 30.566406 69.769531 30.589844 69.839844 30.628906 C 69.863281 30.644531 69.886719 30.664062 69.917969 30.6875 C 69.941406 30.703125 69.957031 30.722656 69.957031 30.746094 C 69.964844 30.773438 69.976562 30.8125 69.976562 30.863281 C 69.984375 30.902344 69.996094 30.957031 69.996094 31.019531 Z M 69.996094 31.019531 "/>
<path style="fill:none;stroke-width:0.3985;stroke-linecap:butt;stroke-linejoin:miter;stroke:rgb(0%,0%,0%);stroke-opacity:1;stroke-miterlimit:10;" d="M -0.001125 -0.002 L 26.29575 20.776125 " transform="matrix(1.25,0,0,-1.25,75.27875,116.4975)"/>
<path style=" stroke:none;fill-rule:nonzero;fill:rgb(0%,0%,0%);fill-opacity:1;" d="M 111.664062 87.742188 C 110.46875 88.375 108.316406 89.125 106.601562 89.371094 L 108.914062 92.300781 C 109.550781 90.6875 110.78125 88.765625 111.664062 87.742188 "/>
<path style=" stroke:none;fill-rule:nonzero;fill:rgb(0%,0%,0%);fill-opacity:1;" d="M 109.398438 104.582031 L 110.199219 100.8125 C 110.492188 99.40625 110.023438 98.859375 108.617188 98.859375 C 107.660156 98.859375 106.820312 99.308594 106.136719 100.207031 C 106.195312 98.898438 105.042969 98.859375 104.476562 98.859375 C 104.203125 98.859375 103.636719 98.859375 102.933594 99.308594 C 102.445312 99.621094 102.074219 100.050781 101.9375 100.265625 L 101.917969 100.265625 L 102.054688 99.582031 C 102.152344 99.132812 102.113281 98.917969 101.546875 98.917969 L 101.078125 98.917969 C 100.589844 98.917969 100.394531 99.074219 100.277344 99.582031 L 99.222656 104.582031 C 99.125 105.089844 99.242188 105.246094 99.730469 105.246094 L 100.277344 105.246094 C 100.804688 105.246094 100.980469 105.070312 101.078125 104.582031 L 101.722656 101.574219 C 101.976562 100.34375 102.914062 99.835938 103.578125 99.835938 C 104.242188 99.835938 104.339844 100.128906 104.183594 100.851562 L 103.382812 104.582031 C 103.285156 105.089844 103.382812 105.246094 103.890625 105.246094 L 104.4375 105.246094 C 104.964844 105.246094 105.140625 105.070312 105.238281 104.582031 L 105.863281 101.574219 C 106.136719 100.34375 107.074219 99.835938 107.738281 99.835938 C 108.402344 99.835938 108.480469 100.128906 108.34375 100.851562 L 107.542969 104.582031 C 107.445312 105.089844 107.542969 105.246094 108.050781 105.246094 L 108.597656 105.246094 C 109.125 105.246094 109.300781 105.070312 109.398438 104.582031 Z M 109.398438 104.582031 "/>
<path style=" stroke:none;fill-rule:nonzero;fill:rgb(0%,0%,0%);fill-opacity:1;" d="M 173.40625 14.21875 C 172.996094 13.847656 172.117188 13.027344 171.550781 11.269531 C 171.179688 10.195312 171.023438 8.945312 171.023438 7.753906 C 171.023438 5.058594 171.726562 2.910156 173.210938 1.40625 C 173.425781 1.191406 173.445312 1.191406 173.445312 1.113281 C 173.445312 0.976562 173.308594 0.9375 173.191406 0.9375 C 172.957031 0.9375 172.390625 1.425781 172.136719 1.660156 C 170.007812 3.769531 169.695312 6.289062 169.695312 7.734375 C 169.695312 9.433594 170.144531 10.9375 170.789062 12.070312 C 171.6875 13.632812 172.9375 14.550781 173.191406 14.550781 C 173.308594 14.550781 173.445312 14.511719 173.445312 14.355469 C 173.445312 14.296875 173.40625 14.238281 173.40625 14.21875 Z M 173.40625 14.21875 "/>
<path style=" stroke:none;fill-rule:nonzero;fill:rgb(0%,0%,0%);fill-opacity:1;" d="M 177.238281 5.683594 L 177.238281 1.699219 L 174.835938 1.796875 L 174.835938 2.441406 C 175.675781 2.441406 175.773438 2.441406 175.773438 2.96875 L 175.773438 11.152344 L 176.417969 11.152344 L 177.082031 10.390625 C 177.199219 10.488281 177.863281 11.230469 179.074219 11.230469 C 181.105469 11.230469 182.511719 10 182.511719 8.105469 C 182.511719 6.308594 181.222656 5.019531 179.25 5.019531 C 178.253906 5.019531 177.570312 5.410156 177.238281 5.683594 Z M 177.335938 9.804688 L 177.335938 6.386719 C 177.6875 5.898438 178.351562 5.507812 179.09375 5.507812 C 180.753906 5.507812 180.753906 7.148438 180.753906 8.105469 C 180.753906 8.75 180.753906 9.511719 180.402344 10.039062 C 180.011719 10.585938 179.386719 10.742188 178.957031 10.742188 C 178 10.742188 177.472656 10 177.335938 9.804688 Z M 177.335938 9.804688 "/>
<path style=" stroke:none;fill-rule:nonzero;fill:rgb(0%,0%,0%);fill-opacity:1;" d="M 187.652344 7.753906 C 187.652344 6.035156 187.203125 4.53125 186.558594 3.417969 C 185.660156 1.835938 184.410156 0.9375 184.15625 0.9375 C 184.058594 0.9375 183.921875 0.976562 183.921875 1.113281 C 183.921875 1.191406 183.921875 1.210938 184.15625 1.425781 C 185.855469 3.183594 186.324219 5.585938 186.324219 7.734375 C 186.324219 10.410156 185.640625 12.558594 184.136719 14.0625 C 183.921875 14.277344 183.921875 14.296875 183.921875 14.355469 C 183.921875 14.511719 184.058594 14.550781 184.15625 14.550781 C 184.390625 14.550781 184.957031 14.042969 185.210938 13.808594 C 187.339844 11.699219 187.652344 9.179688 187.652344 7.753906 Z M 187.652344 7.753906 "/>
<g clip-path="url(#clip10)" clip-rule="nonzero">
<path style="fill:none;stroke-width:0.3985;stroke-linecap:butt;stroke-linejoin:miter;stroke:rgb(69.803922%,69.803922%,69.803922%);stroke-opacity:1;stroke-miterlimit:10;" d="M 55.27325 -0.002 C 55.27325 30.52925 30.5295 55.276125 0.001375 55.276125 C -30.529875 55.276125 -55.27675 30.52925 -55.27675 -0.002 C -55.27675 -30.527 -30.529875 -55.273875 0.001375 -55.273875 C 30.5295 -55.273875 55.27325 -30.527 55.27325 -0.002 Z M 55.27325 -0.002 " transform="matrix(1.25,0,0,-1.25,244.51,116.4975)"/>
</g>
<path style="fill:none;stroke-width:0.3985;stroke-linecap:butt;stroke-linejoin:miter;stroke:rgb(69.803922%,69.803922%,69.803922%);stroke-opacity:1;stroke-dasharray:2.98883,1.99255;stroke-miterlimit:10;" d="M 0.001375 -50.09575 L 0.001375 -50.09575 " transform="matrix(1.25,0,0,-1.25,244.51,116.4975)"/>
<g clip-path="url(#clip11)" clip-rule="nonzero">
<path style="fill:none;stroke-width:0.3985;stroke-linecap:butt;stroke-linejoin:miter;stroke:rgb(69.803922%,69.803922%,69.803922%);stroke-opacity:1;stroke-dasharray:2.98883,1.99255;stroke-miterlimit:10;" d="M 0.001375 -55.0645 L 0.001375 -55.0645 " transform="matrix(1.25,0,0,-1.25,244.51,116.4975)"/>
</g>
<g clip-path="url(#clip12)" clip-rule="nonzero">
<path style="fill:none;stroke-width:0.3985;stroke-linecap:butt;stroke-linejoin:miter;stroke:rgb(69.803922%,69.803922%,69.803922%);stroke-opacity:1;stroke-dasharray:2.98883,1.99255;stroke-miterlimit:10;" d="M 34.2795 -43.361375 C 25.39825 -50.38325 10.657625 -54.15825 -4.386125 -53.25825 C -16.3455 -52.548875 -27.2205 -48.94575 -34.279875 -43.361375 " transform="matrix(1.25,0,0,-1.25,244.51,116.4975)"/>
</g>
<path style="fill:none;stroke-width:0.3985;stroke-linecap:butt;stroke-linejoin:miter;stroke:rgb(69.803922%,69.803922%,69.803922%);stroke-opacity:1;stroke-dasharray:2.98883,1.99255;stroke-miterlimit:10;" d="M 50.23575 -23.052 C 42.951375 -38.9645 14.551375 -48.477 -13.18925 -44.302 C -31.31425 -41.57075 -45.479875 -33.448875 -50.236125 -23.052 " transform="matrix(1.25,0,0,-1.25,244.51,116.4975)"/>
<g clip-path="url(#clip13)" clip-rule="nonzero">
<path style="fill:none;stroke-width:0.3985;stroke-linecap:butt;stroke-linejoin:miter;stroke:rgb(69.803922%,69.803922%,69.803922%);stroke-opacity:1;stroke-dasharray:2.98883,1.99255;stroke-miterlimit:10;" d="M 55.27325 -0.002 C 55.27325 -17.50825 30.5295 -31.705125 0.001375 -31.705125 C -30.529875 -31.705125 -55.27675 -17.50825 -55.27675 -0.002 " transform="matrix(1.25,0,0,-1.25,244.51,116.4975)"/>
</g>
<g clip-path="url(#clip14)" clip-rule="nonzero">
<path style="fill:none;stroke-width:0.3985;stroke-linecap:butt;stroke-linejoin:miter;stroke:rgb(69.803922%,69.803922%,69.803922%);stroke-opacity:1;stroke-dasharray:2.98883,1.99255;stroke-miterlimit:10;" d="M 50.23575 23.05425 C 57.520125 7.138625 40.93575 -9.148875 13.192 -13.330125 C -14.554875 -17.505125 -42.95175 -7.992625 -50.236125 7.919875 C -52.508 12.87925 -52.508 18.09175 -50.236125 23.05425 " transform="matrix(1.25,0,0,-1.25,244.51,116.4975)"/>
</g>
<path style="fill:none;stroke-width:0.3985;stroke-linecap:butt;stroke-linejoin:miter;stroke:rgb(69.803922%,69.803922%,69.803922%);stroke-opacity:1;stroke-dasharray:2.98883,1.99255;stroke-miterlimit:10;" d="M 34.2795 43.363625 C 48.0045 32.50425 43.78575 17.31675 24.851375 9.444875 C 5.92325 1.569875 -20.554875 3.99175 -34.279875 14.851125 C -45.029875 23.351125 -45.029875 34.857375 -34.279875 43.363625 " transform="matrix(1.25,0,0,-1.25,244.51,116.4975)"/>
<path style="fill:none;stroke-width:0.3985;stroke-linecap:butt;stroke-linejoin:miter;stroke:rgb(69.803922%,69.803922%,69.803922%);stroke-opacity:1;stroke-dasharray:2.98883,1.99255;stroke-miterlimit:10;" d="M 0.001375 55.06675 C 15.263875 55.06675 27.638875 47.96675 27.638875 39.213625 C 27.638875 30.457375 15.263875 23.363625 0.001375 23.363625 C -15.26425 23.363625 -27.63925 30.457375 -27.63925 39.213625 C -27.63925 47.96675 -15.26425 55.06675 0.001375 55.06675 " transform="matrix(1.25,0,0,-1.25,244.51,116.4975)"/>
<path style="fill:none;stroke-width:0.3985;stroke-linecap:butt;stroke-linejoin:miter;stroke:rgb(69.803922%,69.803922%,69.803922%);stroke-opacity:1;stroke-dasharray:2.98883,1.99255;stroke-miterlimit:10;" d="M 0.001375 50.098 C 5.301375 50.098 9.59825 47.632375 9.59825 44.59175 C 9.59825 41.551125 5.301375 39.0855 0.001375 39.0855 C -5.298625 39.0855 -9.5955 41.551125 -9.5955 44.59175 C -9.5955 47.632375 -5.298625 50.098 0.001375 50.098 " transform="matrix(1.25,0,0,-1.25,244.51,116.4975)"/>
<g clip-path="url(#clip15)" clip-rule="nonzero">
<path style="fill:none;stroke-width:0.3985;stroke-linecap:butt;stroke-linejoin:miter;stroke:rgb(69.803922%,69.803922%,69.803922%);stroke-opacity:1;stroke-dasharray:2.98883,1.99255;stroke-miterlimit:10;" d="M 54.645125 -8.3145 C 58.388875 16.31675 36.9545 40.00425 6.77325 44.598 C -23.404875 49.1855 -50.904875 32.944875 -54.648625 8.31675 " transform="matrix(1.25,0,0,-1.25,244.51,116.4975)"/>
</g>
<path style="fill:none;stroke-width:0.3985;stroke-linecap:butt;stroke-linejoin:miter;stroke:rgb(69.803922%,69.803922%,69.803922%);stroke-opacity:1;stroke-dasharray:2.98883,1.99255;stroke-miterlimit:10;" d="M 35.0295 -42.755125 C 50.87325 -29.773875 48.032625 -0.105125 28.688875 23.507375 C 9.342 47.119875 -19.186125 55.738625 -35.029875 42.757375 " transform="matrix(1.25,0,0,-1.25,244.51,116.4975)"/>
<g clip-path="url(#clip16)" clip-rule="nonzero">
<path style="fill:none;stroke-width:0.3985;stroke-linecap:butt;stroke-linejoin:miter;stroke:rgb(69.803922%,69.803922%,69.803922%);stroke-opacity:1;stroke-dasharray:2.98883,1.99255;stroke-miterlimit:10;" d="M 14.27325 -53.39575 C 24.48575 -50.677 26.37325 -24.567625 18.488875 4.926125 C 10.607625 34.41675 -4.061125 56.11675 -14.27675 53.398 " transform="matrix(1.25,0,0,-1.25,244.51,116.4975)"/>
</g>
<g clip-path="url(#clip17)" clip-rule="nonzero">
<path style="fill:none;stroke-width:0.3985;stroke-linecap:butt;stroke-linejoin:miter;stroke:rgb(69.803922%,69.803922%,69.803922%);stroke-opacity:1;stroke-dasharray:2.98883,1.99255;stroke-miterlimit:10;" d="M -2.767375 -55.205125 C -4.9455 -55.1145 -5.4705 -30.32075 -3.9455 0.16675 C -2.41425 30.65425 0.592 55.294875 2.767 55.207375 " transform="matrix(1.25,0,0,-1.25,244.51,116.4975)"/>
</g>
<g clip-path="url(#clip18)" clip-rule="nonzero">
<path style="fill:none;stroke-width:0.3985;stroke-linecap:butt;stroke-linejoin:miter;stroke:rgb(69.803922%,69.803922%,69.803922%);stroke-opacity:1;stroke-dasharray:2.98883,1.99255;stroke-miterlimit:10;" d="M -20.58925 -51.292625 C -33.904875 -45.961375 -35.479875 -18.673875 -24.108 9.65425 C -12.736125 37.988625 7.27325 56.62925 20.58575 51.294875 " transform="matrix(1.25,0,0,-1.25,244.51,116.4975)"/>
</g>
<path style="fill:none;stroke-width:0.3985;stroke-linecap:butt;stroke-linejoin:miter;stroke:rgb(69.803922%,69.803922%,69.803922%);stroke-opacity:1;stroke-dasharray:2.98883,1.99255;stroke-miterlimit:10;" d="M -42.90175 -34.855125 C -57.186125 -17.261375 -49.561125 12.60425 -25.8705 31.85425 C -2.173625 51.10425 28.613875 52.448 42.89825 34.85425 " transform="matrix(1.25,0,0,-1.25,244.51,116.4975)"/>
<path style="fill:none;stroke-width:0.3985;stroke-linecap:butt;stroke-linejoin:miter;stroke:rgb(0%,0%,0%);stroke-opacity:1;stroke-miterlimit:10;" d="M 0.001375 -0.002 L 0.001375 45.27925 " transform="matrix(1.25,0,0,-1.25,244.51,116.4975)"/>
<path style="fill:none;stroke-width:0.3985;stroke-linecap:butt;stroke-linejoin:miter;stroke:rgb(0%,0%,100%);stroke-opacity:1;stroke-miterlimit:10;" d="M 29.107625 22.998 C 23.017 30.551125 15.688875 36.913625 10.976375 39.632375 " transform="matrix(1.25,0,0,-1.25,244.51,116.4975)"/>
<path style=" stroke:none;fill-rule:nonzero;fill:rgb(0%,0%,100%);fill-opacity:1;" d="M 254.335938 64.707031 C 255.367188 65.585938 256.867188 67.320312 257.730469 68.828125 L 259.605469 65.582031 C 257.867188 65.589844 255.617188 65.15625 254.335938 64.707031 "/>
<path style="fill:none;stroke-width:0.3985;stroke-linecap:butt;stroke-linejoin:miter;stroke:rgb(0%,0%,0%);stroke-opacity:1;stroke-miterlimit:10;" d="M 0.001375 45.27925 L 0.001375 64.3355 " transform="matrix(1.25,0,0,-1.25,244.51,116.4975)"/>
<path style=" stroke:none;fill-rule:nonzero;fill:rgb(0%,0%,0%);fill-opacity:1;" d="M 244.511719 31.597656 C 244.261719 32.925781 243.515625 35.082031 242.640625 36.578125 L 246.375 36.578125 C 245.507812 35.082031 244.761719 32.925781 244.511719 31.597656 "/>
<path style=" stroke:none;fill-rule:nonzero;fill:rgb(0%,0%,0%);fill-opacity:1;" d="M 227.285156 34.566406 L 229.023438 26.421875 C 229.121094 25.992188 229.0625 25.777344 228.515625 25.777344 L 227.8125 25.777344 C 227.304688 25.777344 227.128906 25.953125 227.011719 26.421875 L 226.328125 29.664062 L 222.011719 29.664062 L 222.695312 26.421875 C 222.792969 25.992188 222.753906 25.777344 222.1875 25.777344 L 221.484375 25.777344 C 220.996094 25.777344 220.800781 25.914062 220.683594 26.421875 L 218.945312 34.566406 C 218.867188 35.074219 218.964844 35.230469 219.472656 35.230469 L 220.175781 35.230469 C 220.683594 35.230469 220.859375 35.054688 220.957031 34.566406 L 221.738281 30.953125 L 226.054688 30.953125 L 225.273438 34.566406 C 225.175781 35.015625 225.234375 35.230469 225.800781 35.230469 L 226.484375 35.230469 C 227.011719 35.230469 227.1875 35.054688 227.285156 34.566406 Z M 227.285156 34.566406 "/>
<path style=" stroke:none;fill-rule:nonzero;fill:rgb(0%,0%,0%);fill-opacity:1;" d="M 232.902344 34.828125 C 232.902344 34.960938 232.871094 35.050781 232.804688 35.101562 C 232.753906 35.15625 232.679688 35.179688 232.589844 35.179688 L 229.71875 35.179688 C 229.71875 35.429688 229.738281 35.648438 229.777344 35.84375 C 229.828125 36.039062 229.914062 36.210938 230.03125 36.351562 C 230.148438 36.496094 230.296875 36.605469 230.480469 36.683594 C 230.664062 36.75 230.882812 36.78125 231.144531 36.78125 C 231.351562 36.78125 231.535156 36.769531 231.691406 36.742188 C 231.859375 36.703125 232.003906 36.664062 232.121094 36.625 C 232.238281 36.574219 232.335938 36.535156 232.414062 36.507812 C 232.492188 36.46875 232.550781 36.449219 232.589844 36.449219 C 232.617188 36.449219 232.636719 36.457031 232.648438 36.46875 C 232.675781 36.484375 232.6875 36.503906 232.6875 36.527344 C 232.699219 36.542969 232.707031 36.574219 232.707031 36.625 C 232.71875 36.664062 232.726562 36.710938 232.726562 36.761719 C 232.726562 36.800781 232.71875 36.839844 232.707031 36.878906 C 232.707031 36.90625 232.707031 36.933594 232.707031 36.957031 C 232.707031 36.984375 232.699219 37.011719 232.6875 37.035156 C 232.675781 37.050781 232.65625 37.070312 232.628906 37.09375 C 232.617188 37.109375 232.5625 37.132812 232.472656 37.171875 C 232.394531 37.210938 232.285156 37.25 232.140625 37.289062 C 231.996094 37.328125 231.835938 37.355469 231.652344 37.386719 C 231.46875 37.425781 231.273438 37.445312 231.066406 37.445312 C 230.703125 37.445312 230.382812 37.390625 230.109375 37.289062 C 229.835938 37.1875 229.609375 37.035156 229.425781 36.839844 C 229.242188 36.644531 229.101562 36.398438 228.996094 36.097656 C 228.90625 35.800781 228.859375 35.449219 228.859375 35.042969 C 228.859375 34.667969 228.90625 34.328125 228.996094 34.027344 C 229.101562 33.730469 229.242188 33.476562 229.425781 33.265625 C 229.621094 33.058594 229.847656 32.894531 230.109375 32.777344 C 230.371094 32.660156 230.65625 32.601562 230.96875 32.601562 C 231.320312 32.601562 231.613281 32.660156 231.847656 32.777344 C 232.09375 32.882812 232.296875 33.03125 232.453125 33.226562 C 232.609375 33.410156 232.71875 33.632812 232.785156 33.890625 C 232.863281 34.140625 232.902344 34.40625 232.902344 34.691406 Z M 232.101562 34.59375 C 232.113281 34.179688 232.015625 33.851562 231.808594 33.617188 C 231.613281 33.371094 231.328125 33.246094 230.949219 33.246094 C 230.742188 33.246094 230.558594 33.285156 230.402344 33.363281 C 230.257812 33.429688 230.136719 33.527344 230.03125 33.65625 C 229.941406 33.773438 229.863281 33.917969 229.796875 34.085938 C 229.746094 34.242188 229.71875 34.414062 229.71875 34.59375 Z M 232.101562 34.59375 "/>
<path style=" stroke:none;fill-rule:nonzero;fill:rgb(0%,0%,0%);fill-opacity:1;" d="M 239.226562 31.019531 C 239.226562 31.125 239.214844 31.203125 239.207031 31.253906 C 239.191406 31.292969 239.15625 31.3125 239.109375 31.3125 C 239.078125 31.3125 239.050781 31.308594 239.011719 31.292969 C 238.980469 31.28125 238.941406 31.269531 238.894531 31.253906 C 238.839844 31.230469 238.78125 31.210938 238.71875 31.195312 C 238.648438 31.183594 238.582031 31.175781 238.503906 31.175781 C 238.253906 31.175781 238.078125 31.261719 237.976562 31.429688 C 237.882812 31.585938 237.839844 31.847656 237.839844 32.210938 L 237.839844 32.699219 L 238.816406 32.699219 C 238.839844 32.699219 238.859375 32.707031 238.875 32.71875 C 238.898438 32.734375 238.917969 32.753906 238.933594 32.777344 C 238.957031 32.804688 238.972656 32.84375 238.972656 32.894531 C 238.980469 32.933594 238.992188 32.980469 238.992188 33.03125 C 238.992188 33.148438 238.972656 33.234375 238.933594 33.285156 C 238.902344 33.339844 238.863281 33.363281 238.816406 33.363281 L 237.839844 33.363281 L 237.839844 37.230469 C 237.839844 37.257812 237.828125 37.277344 237.820312 37.289062 C 237.804688 37.304688 237.78125 37.324219 237.742188 37.347656 C 237.710938 37.355469 237.671875 37.367188 237.625 37.367188 C 237.570312 37.375 237.507812 37.386719 237.429688 37.386719 C 237.351562 37.386719 237.28125 37.375 237.234375 37.367188 C 237.179688 37.367188 237.140625 37.355469 237.117188 37.347656 C 237.085938 37.324219 237.066406 37.304688 237.058594 37.289062 C 237.042969 37.277344 237.039062 37.257812 237.039062 37.230469 L 237.039062 33.363281 L 235.066406 33.363281 L 235.066406 37.230469 C 235.066406 37.257812 235.054688 37.277344 235.046875 37.289062 C 235.03125 37.304688 235.007812 37.324219 234.96875 37.347656 C 234.9375 37.355469 234.898438 37.367188 234.851562 37.367188 C 234.796875 37.375 234.734375 37.386719 234.65625 37.386719 C 234.578125 37.386719 234.507812 37.375 234.460938 37.367188 C 234.40625 37.367188 234.363281 37.355469 234.324219 37.347656 C 234.292969 37.324219 234.273438 37.304688 234.265625 37.289062 C 234.25 37.277344 234.246094 37.257812 234.246094 37.230469 L 234.246094 33.363281 L 233.621094 33.363281 C 233.566406 33.363281 233.527344 33.339844 233.503906 33.285156 C 233.472656 33.234375 233.464844 33.148438 233.464844 33.03125 C 233.464844 32.980469 233.464844 32.933594 233.464844 32.894531 C 233.472656 32.84375 233.488281 32.804688 233.503906 32.777344 C 233.511719 32.753906 233.527344 32.734375 233.542969 32.71875 C 233.566406 32.707031 233.589844 32.699219 233.621094 32.699219 L 234.246094 32.699219 L 234.246094 32.289062 C 234.246094 31.992188 234.269531 31.730469 234.324219 31.507812 C 234.386719 31.289062 234.480469 31.113281 234.597656 30.980469 C 234.714844 30.839844 234.855469 30.734375 235.027344 30.667969 C 235.207031 30.605469 235.417969 30.570312 235.652344 30.570312 C 235.792969 30.570312 235.914062 30.585938 236.023438 30.609375 C 236.125 30.625 236.207031 30.648438 236.277344 30.6875 C 236.316406 30.703125 236.339844 30.722656 236.355469 30.746094 C 236.378906 30.761719 236.398438 30.78125 236.414062 30.804688 C 236.421875 30.832031 236.433594 30.871094 236.433594 30.921875 C 236.441406 30.960938 236.453125 31.015625 236.453125 31.078125 C 236.453125 31.183594 236.4375 31.261719 236.414062 31.3125 C 236.398438 31.351562 236.375 31.371094 236.335938 31.371094 C 236.304688 31.371094 236.277344 31.367188 236.238281 31.351562 C 236.207031 31.339844 236.167969 31.328125 236.121094 31.3125 C 236.066406 31.289062 236.007812 31.269531 235.945312 31.253906 C 235.875 31.242188 235.796875 31.234375 235.710938 31.234375 C 235.476562 31.234375 235.304688 31.320312 235.203125 31.488281 C 235.109375 31.644531 235.066406 31.90625 235.066406 32.269531 L 235.066406 32.699219 L 237.039062 32.699219 L 237.039062 32.230469 C 237.039062 31.933594 237.0625 31.671875 237.117188 31.449219 C 237.179688 31.230469 237.273438 31.054688 237.390625 30.921875 C 237.507812 30.78125 237.648438 30.675781 237.820312 30.609375 C 238 30.546875 238.199219 30.511719 238.425781 30.511719 C 238.566406 30.511719 238.6875 30.527344 238.796875 30.550781 C 238.914062 30.566406 239 30.589844 239.070312 30.628906 C 239.09375 30.644531 239.117188 30.664062 239.148438 30.6875 C 239.171875 30.703125 239.1875 30.722656 239.1875 30.746094 C 239.195312 30.773438 239.207031 30.8125 239.207031 30.863281 C 239.214844 30.902344 239.226562 30.957031 239.226562 31.019531 Z M 239.226562 31.019531 "/>
<path style="fill:none;stroke-width:0.3985;stroke-linecap:butt;stroke-linejoin:miter;stroke:rgb(0%,0%,0%);stroke-opacity:1;stroke-miterlimit:10;" d="M 0.001375 -0.002 L 26.29825 20.776125 " transform="matrix(1.25,0,0,-1.25,244.51,116.4975)"/>
<path style=" stroke:none;fill-rule:nonzero;fill:rgb(0%,0%,0%);fill-opacity:1;" d="M 280.898438 87.742188 C 279.703125 88.375 277.542969 89.125 275.828125 89.371094 L 278.148438 92.300781 C 278.78125 90.6875 280.007812 88.765625 280.898438 87.742188 "/>
<path style=" stroke:none;fill-rule:nonzero;fill:rgb(0%,0%,0%);fill-opacity:1;" d="M 278.628906 104.582031 L 279.429688 100.8125 C 279.722656 99.40625 279.253906 98.859375 277.847656 98.859375 C 276.890625 98.859375 276.050781 99.308594 275.367188 100.207031 C 275.425781 98.898438 274.273438 98.859375 273.707031 98.859375 C 273.433594 98.859375 272.867188 98.859375 272.164062 99.308594 C 271.675781 99.621094 271.304688 100.050781 271.167969 100.265625 L 271.148438 100.265625 L 271.285156 99.582031 C 271.382812 99.132812 271.34375 98.917969 270.777344 98.917969 L 270.308594 98.917969 C 269.820312 98.917969 269.625 99.074219 269.507812 99.582031 L 268.453125 104.582031 C 268.355469 105.089844 268.472656 105.246094 268.960938 105.246094 L 269.507812 105.246094 C 270.035156 105.246094 270.210938 105.070312 270.308594 104.582031 L 270.953125 101.574219 C 271.207031 100.34375 272.144531 99.835938 272.808594 99.835938 C 273.472656 99.835938 273.570312 100.128906 273.414062 100.851562 L 272.613281 104.582031 C 272.515625 105.089844 272.613281 105.246094 273.121094 105.246094 L 273.667969 105.246094 C 274.195312 105.246094 274.371094 105.070312 274.46875 104.582031 L 275.09375 101.574219 C 275.367188 100.34375 276.304688 99.835938 276.96875 99.835938 C 277.632812 99.835938 277.710938 100.128906 277.574219 100.851562 L 276.773438 104.582031 C 276.675781 105.089844 276.773438 105.246094 277.28125 105.246094 L 277.828125 105.246094 C 278.355469 105.246094 278.53125 105.070312 278.628906 104.582031 Z M 278.628906 104.582031 "/>
<path style=" stroke:none;fill-rule:nonzero;fill:rgb(0%,0%,0%);fill-opacity:1;" d="M 342.636719 14.21875 C 342.226562 13.847656 341.347656 13.027344 340.78125 11.269531 C 340.410156 10.195312 340.253906 8.945312 340.253906 7.753906 C 340.253906 5.058594 340.957031 2.910156 342.441406 1.40625 C 342.65625 1.191406 342.675781 1.191406 342.675781 1.113281 C 342.675781 0.976562 342.539062 0.9375 342.421875 0.9375 C 342.1875 0.9375 341.621094 1.425781 341.367188 1.660156 C 339.238281 3.769531 338.925781 6.289062 338.925781 7.734375 C 338.925781 9.433594 339.375 10.9375 340.019531 12.070312 C 340.917969 13.632812 342.167969 14.550781 342.421875 14.550781 C 342.539062 14.550781 342.675781 14.511719 342.675781 14.355469 C 342.675781 14.296875 342.636719 14.238281 342.636719 14.21875 Z M 342.636719 14.21875 "/>
<path style=" stroke:none;fill-rule:nonzero;fill:rgb(0%,0%,0%);fill-opacity:1;" d="M 348.464844 5.605469 C 348.230469 5.820312 348.191406 6.113281 348.191406 6.230469 C 348.191406 6.835938 348.679688 7.089844 349.050781 7.089844 C 349.460938 7.089844 349.910156 6.796875 349.910156 6.230469 C 349.910156 5.058594 348.328125 4.980469 347.527344 4.980469 C 345.085938 4.980469 344.089844 6.542969 344.089844 8.125 C 344.089844 9.941406 345.359375 11.230469 347.46875 11.230469 C 349.675781 11.230469 350.085938 9.648438 350.085938 9.550781 C 350.085938 9.375 349.890625 9.375 349.753906 9.375 C 349.5 9.375 349.5 9.394531 349.421875 9.570312 C 349.070312 10.429688 348.40625 10.683594 347.722656 10.683594 C 345.828125 10.683594 345.828125 8.691406 345.828125 8.066406 C 345.828125 7.285156 345.828125 5.527344 347.585938 5.527344 C 348.054688 5.527344 348.289062 5.566406 348.464844 5.605469 Z M 348.464844 5.605469 "/>
<path style=" stroke:none;fill-rule:nonzero;fill:rgb(0%,0%,0%);fill-opacity:1;" d="M 355.140625 7.753906 C 355.140625 6.035156 354.691406 4.53125 354.046875 3.417969 C 353.148438 1.835938 351.898438 0.9375 351.644531 0.9375 C 351.546875 0.9375 351.410156 0.976562 351.410156 1.113281 C 351.410156 1.191406 351.410156 1.210938 351.644531 1.425781 C 353.34375 3.183594 353.8125 5.585938 353.8125 7.734375 C 353.8125 10.410156 353.128906 12.558594 351.625 14.0625 C 351.410156 14.277344 351.410156 14.296875 351.410156 14.355469 C 351.410156 14.511719 351.546875 14.550781 351.644531 14.550781 C 351.878906 14.550781 352.445312 14.042969 352.699219 13.808594 C 354.828125 11.699219 355.140625 9.179688 355.140625 7.753906 Z M 355.140625 7.753906 "/>
<g clip-path="url(#clip19)" clip-rule="nonzero">
<path style="fill:none;stroke-width:0.3985;stroke-linecap:butt;stroke-linejoin:miter;stroke:rgb(69.803922%,69.803922%,69.803922%);stroke-opacity:1;stroke-miterlimit:10;" d="M 55.27675 -0.002 C 55.27675 30.52925 30.52675 55.276125 0.00175 55.276125 C -30.526375 55.276125 -55.276375 30.52925 -55.276375 -0.002 C -55.276375 -30.527 -30.526375 -55.273875 0.00175 -55.273875 C 30.52675 -55.273875 55.27675 -30.527 55.27675 -0.002 Z M 55.27675 -0.002 " transform="matrix(1.25,0,0,-1.25,413.74,116.4975)"/>
</g>
<path style="fill:none;stroke-width:0.3985;stroke-linecap:butt;stroke-linejoin:miter;stroke:rgb(69.803922%,69.803922%,69.803922%);stroke-opacity:1;stroke-dasharray:2.98883,1.99255;stroke-miterlimit:10;" d="M 0.00175 -50.09575 L 0.00175 -50.09575 " transform="matrix(1.25,0,0,-1.25,413.74,116.4975)"/>
<g clip-path="url(#clip20)" clip-rule="nonzero">
<path style="fill:none;stroke-width:0.3985;stroke-linecap:butt;stroke-linejoin:miter;stroke:rgb(69.803922%,69.803922%,69.803922%);stroke-opacity:1;stroke-dasharray:2.98883,1.99255;stroke-miterlimit:10;" d="M 0.00175 -55.0645 L 0.00175 -55.0645 " transform="matrix(1.25,0,0,-1.25,413.74,116.4975)"/>
</g>
<g clip-path="url(#clip21)" clip-rule="nonzero">
<path style="fill:none;stroke-width:0.3985;stroke-linecap:butt;stroke-linejoin:miter;stroke:rgb(69.803922%,69.803922%,69.803922%);stroke-opacity:1;stroke-dasharray:2.98883,1.99255;stroke-miterlimit:10;" d="M 34.283 -43.361375 C 25.40175 -50.38325 10.661125 -54.15825 -4.382625 -53.25825 C -16.34825 -52.548875 -27.22325 -48.94575 -34.2795 -43.361375 " transform="matrix(1.25,0,0,-1.25,413.74,116.4975)"/>
</g>
<path style="fill:none;stroke-width:0.3985;stroke-linecap:butt;stroke-linejoin:miter;stroke:rgb(69.803922%,69.803922%,69.803922%);stroke-opacity:1;stroke-dasharray:2.98883,1.99255;stroke-miterlimit:10;" d="M 50.23925 -23.052 C 42.954875 -38.9645 14.554875 -48.477 -13.192 -44.302 C -31.317 -41.57075 -45.476375 -33.448875 -50.238875 -23.052 " transform="matrix(1.25,0,0,-1.25,413.74,116.4975)"/>
<g clip-path="url(#clip22)" clip-rule="nonzero">
<path style="fill:none;stroke-width:0.3985;stroke-linecap:butt;stroke-linejoin:miter;stroke:rgb(69.803922%,69.803922%,69.803922%);stroke-opacity:1;stroke-dasharray:2.98883,1.99255;stroke-miterlimit:10;" d="M 55.27675 -0.002 C 55.27675 -17.50825 30.52675 -31.705125 0.00175 -31.705125 C -30.526375 -31.705125 -55.276375 -17.50825 -55.276375 -0.002 " transform="matrix(1.25,0,0,-1.25,413.74,116.4975)"/>
</g>
<g clip-path="url(#clip23)" clip-rule="nonzero">
<path style="fill:none;stroke-width:0.3985;stroke-linecap:butt;stroke-linejoin:miter;stroke:rgb(69.803922%,69.803922%,69.803922%);stroke-opacity:1;stroke-dasharray:2.98883,1.99255;stroke-miterlimit:10;" d="M 50.23925 23.05425 C 57.523625 7.138625 40.93925 -9.148875 13.192375 -13.330125 C -14.5545 -17.505125 -42.951375 -7.992625 -50.238875 7.919875 C -52.507625 12.87925 -52.507625 18.09175 -50.238875 23.05425 " transform="matrix(1.25,0,0,-1.25,413.74,116.4975)"/>
</g>
<path style="fill:none;stroke-width:0.3985;stroke-linecap:butt;stroke-linejoin:miter;stroke:rgb(69.803922%,69.803922%,69.803922%);stroke-opacity:1;stroke-dasharray:2.98883,1.99255;stroke-miterlimit:10;" d="M 34.283 43.363625 C 48.008 32.50425 43.786125 17.31675 24.854875 9.444875 C 5.923625 1.569875 -20.5545 3.99175 -34.2795 14.851125 C -45.026375 23.351125 -45.026375 34.857375 -34.2795 43.363625 " transform="matrix(1.25,0,0,-1.25,413.74,116.4975)"/>
<path style="fill:none;stroke-width:0.3985;stroke-linecap:butt;stroke-linejoin:miter;stroke:rgb(69.803922%,69.803922%,69.803922%);stroke-opacity:1;stroke-dasharray:2.98883,1.99255;stroke-miterlimit:10;" d="M 0.00175 55.06675 C 15.267375 55.06675 27.636125 47.96675 27.636125 39.213625 C 27.636125 30.457375 15.267375 23.363625 0.00175 23.363625 C -15.263875 23.363625 -27.63575 30.457375 -27.63575 39.213625 C -27.63575 47.96675 -15.263875 55.06675 0.00175 55.06675 " transform="matrix(1.25,0,0,-1.25,413.74,116.4975)"/>
<path style="fill:none;stroke-width:0.3985;stroke-linecap:butt;stroke-linejoin:miter;stroke:rgb(69.803922%,69.803922%,69.803922%);stroke-opacity:1;stroke-dasharray:2.98883,1.99255;stroke-miterlimit:10;" d="M 0.00175 50.098 C 5.30175 50.098 9.598625 47.632375 9.598625 44.59175 C 9.598625 41.551125 5.30175 39.0855 0.00175 39.0855 C -5.301375 39.0855 -9.59825 41.551125 -9.59825 44.59175 C -9.59825 47.632375 -5.301375 50.098 0.00175 50.098 " transform="matrix(1.25,0,0,-1.25,413.74,116.4975)"/>
<g clip-path="url(#clip24)" clip-rule="nonzero">
<path style="fill:none;stroke-width:0.3985;stroke-linecap:butt;stroke-linejoin:miter;stroke:rgb(69.803922%,69.803922%,69.803922%);stroke-opacity:1;stroke-dasharray:2.98883,1.99255;stroke-miterlimit:10;" d="M 54.6455 -8.3145 C 58.386125 16.31675 36.958 40.00425 6.77675 44.598 C -23.4045 49.1855 -50.9045 32.944875 -54.645125 8.31675 " transform="matrix(1.25,0,0,-1.25,413.74,116.4975)"/>
</g>
<path style="fill:none;stroke-width:0.3985;stroke-linecap:butt;stroke-linejoin:miter;stroke:rgb(69.803922%,69.803922%,69.803922%);stroke-opacity:1;stroke-dasharray:2.98883,1.99255;stroke-miterlimit:10;" d="M 35.02675 -42.755125 C 50.8705 -29.773875 48.033 -0.105125 28.68925 23.507375 C 9.3455 47.119875 -19.182625 55.738625 -35.026375 42.757375 " transform="matrix(1.25,0,0,-1.25,413.74,116.4975)"/>
<g clip-path="url(#clip25)" clip-rule="nonzero">
<path style="fill:none;stroke-width:0.3985;stroke-linecap:butt;stroke-linejoin:miter;stroke:rgb(69.803922%,69.803922%,69.803922%);stroke-opacity:1;stroke-dasharray:2.98883,1.99255;stroke-miterlimit:10;" d="M 14.273625 -53.39575 C 24.48925 -50.677 26.37675 -24.567625 18.492375 4.926125 C 10.604875 34.41675 -4.06075 56.11675 -14.27325 53.398 " transform="matrix(1.25,0,0,-1.25,413.74,116.4975)"/>
</g>
<g clip-path="url(#clip26)" clip-rule="nonzero">
<path style="fill:none;stroke-width:0.3985;stroke-linecap:butt;stroke-linejoin:miter;stroke:rgb(69.803922%,69.803922%,69.803922%);stroke-opacity:1;stroke-dasharray:2.98883,1.99255;stroke-miterlimit:10;" d="M -2.770125 -55.205125 C -4.945125 -55.1145 -5.47325 -30.32075 -3.942 0.16675 C -2.413875 30.65425 0.58925 55.294875 2.7705 55.207375 " transform="matrix(1.25,0,0,-1.25,413.74,116.4975)"/>
</g>
<g clip-path="url(#clip27)" clip-rule="nonzero">
<path style="fill:none;stroke-width:0.3985;stroke-linecap:butt;stroke-linejoin:miter;stroke:rgb(69.803922%,69.803922%,69.803922%);stroke-opacity:1;stroke-dasharray:2.98883,1.99255;stroke-miterlimit:10;" d="M -20.588875 -51.292625 C -33.901375 -45.961375 -35.4795 -18.673875 -24.107625 9.65425 C -12.738875 37.988625 7.273625 56.62925 20.58925 51.294875 " transform="matrix(1.25,0,0,-1.25,413.74,116.4975)"/>
</g>
<path style="fill:none;stroke-width:0.3985;stroke-linecap:butt;stroke-linejoin:miter;stroke:rgb(69.803922%,69.803922%,69.803922%);stroke-opacity:1;stroke-dasharray:2.98883,1.99255;stroke-miterlimit:10;" d="M -42.901375 -34.855125 C -57.18575 -17.261375 -49.56075 12.60425 -25.867 31.85425 C -2.176375 51.10425 28.61425 52.448 42.898625 34.85425 " transform="matrix(1.25,0,0,-1.25,413.74,116.4975)"/>
<path style="fill:none;stroke-width:0.3985;stroke-linecap:butt;stroke-linejoin:miter;stroke:rgb(0%,0%,0%);stroke-opacity:1;stroke-miterlimit:10;" d="M 0.00175 -0.002 L 0.00175 45.27925 " transform="matrix(1.25,0,0,-1.25,413.74,116.4975)"/>
<path style="fill:none;stroke-width:0.3985;stroke-linecap:butt;stroke-linejoin:miter;stroke:rgb(0%,0%,100%);stroke-opacity:1;stroke-miterlimit:10;" d="M 27.2205 21.5855 C 27.2205 21.5855 29.323625 23.3355 30.017375 24.044875 C 30.708 24.75425 31.68925 25.94175 32.204875 26.694875 C 32.723625 27.448 33.411125 28.698 33.742375 29.482375 C 34.073625 30.269875 34.461125 31.557375 34.604875 32.357375 C 34.75175 33.1605 34.829875 34.457375 34.783 35.2605 C 34.736125 36.0605 34.504875 37.348 34.2705 38.1355 C 34.036125 38.919875 33.508 40.176125 33.0955 40.932375 C 32.679875 41.69175 31.86425 42.882375 31.27675 43.59175 C 30.692375 44.307375 29.611125 45.419875 28.867375 46.076125 C 28.1205 46.732375 26.798625 47.744875 25.908 48.332375 C 25.0205 48.919875 23.47675 49.807375 22.46425 50.31675 C 21.454875 50.826125 19.729875 51.576125 18.617375 51.998 C 17.50175 52.419875 15.629875 53.026125 14.433 53.351125 C 13.242375 53.67925 11.258 54.123 10.011125 54.351125 C 8.761125 54.576125 6.708 54.863625 5.429875 54.982375 C 4.148625 55.107375 2.067375 55.223 0.783 55.24175 C -0.49825 55.2605 -2.570125 55.207375 -3.832625 55.123 C -5.09825 55.038625 -7.113875 54.823 -8.332625 54.638625 C -9.551375 54.457375 -11.47325 54.082375 -12.62325 53.80425 C -13.776375 53.526125 -15.570125 53.00425 -16.6295 52.638625 C -17.692 52.273 -19.317 51.613625 -20.270125 51.16675 C -21.217 50.723 -22.651375 49.944875 -23.47325 49.432375 C -24.292 48.91675 -25.507625 48.0355 -26.18575 47.463625 C -26.867 46.894875 -27.838875 45.92925 -28.363875 45.3105 C -28.88575 44.694875 -29.59825 43.66675 -29.957625 43.013625 C -30.317 42.36675 -30.76075 41.294875 -30.94825 40.62925 C -31.138875 39.957375 -31.3045 38.869875 -31.32325 38.194875 C -31.338875 37.523 -31.2295 36.4355 -31.076375 35.773 C -30.926375 35.107375 -30.545125 34.051125 -30.226375 33.40425 C -29.91075 32.763625 -29.270125 31.748 -28.792 31.144875 C -28.317 30.5355 -27.426375 29.588625 -26.8045 29.02925 C -26.182625 28.473 -25.067 27.607375 -24.31075 27.107375 C -23.557625 26.607375 -22.242 25.851125 -21.370125 25.41675 C -20.49825 24.982375 -19.01075 24.34175 -18.042 23.982375 C -17.07325 23.62925 -15.442 23.11675 -14.395125 22.84175 C -13.34825 22.569875 -11.6045 22.194875 -10.49825 22.0105 C -9.39825 21.823 -7.582625 21.598 -6.445125 21.50425 C -5.307625 21.4105 -3.451375 21.332375 -2.307625 21.326125 C -1.16075 21.326125 0.692375 21.398 1.829875 21.488625 C 2.9705 21.576125 4.786125 21.801125 5.886125 21.97925 C 6.98925 22.1605 8.736125 22.519875 9.783 22.7855 C 10.829875 23.051125 12.4705 23.544875 13.442375 23.888625 C 14.41425 24.238625 15.91425 24.85425 16.792375 25.273 C 17.673625 25.69175 19.011125 26.419875 19.783 26.901125 C 20.55175 27.3855 21.698625 28.2105 22.3455 28.744875 C 22.992375 29.2855 23.92675 30.19175 24.43925 30.769875 C 24.948625 31.348 25.661125 32.3105 26.033 32.926125 C 26.398625 33.538625 26.8705 34.544875 27.08925 35.17925 C 27.308 35.8105 27.542375 36.838625 27.611125 37.47925 C 27.67675 38.119875 27.661125 39.151125 27.579875 39.788625 C 27.4955 40.419875 27.23925 41.4355 27.008 42.05425 C 26.773625 42.669875 26.283 43.651125 25.911125 44.24175 C 25.53925 44.832375 24.823625 45.757375 24.3205 46.307375 C 23.817375 46.863625 22.898625 47.713625 22.273625 48.21675 C 21.648625 48.71675 20.542375 49.488625 19.81425 49.932375 C 19.083 50.373 17.8205 51.04175 16.9955 51.419875 C 16.173625 51.801125 14.77675 52.35425 13.879875 52.6605 C 12.986125 52.96675 11.486125 53.401125 10.533 53.632375 C 9.583 53.86675 8.008 54.169875 7.023625 54.323 C 6.036125 54.476125 4.423625 54.65425 3.417375 54.726125 C 2.417375 54.79175 0.798625 54.838625 -0.201375 54.826125 C -1.19825 54.81675 -2.795125 54.732375 -3.77325 54.644875 C -4.745125 54.55425 -6.288875 54.34175 -7.22325 54.176125 C -8.151375 54.0105 -9.613875 53.682375 -10.482625 53.444875 C -11.351375 53.207375 -12.69825 52.763625 -13.492 52.463625 C -14.28575 52.1605 -15.495125 51.61675 -16.195125 51.257375 C -16.89825 50.894875 -17.94825 50.269875 -18.545125 49.85425 C -19.145125 49.444875 -20.013875 48.744875 -20.49825 48.29175 C -20.9795 47.838625 -21.66075 47.0855 -22.02325 46.601125 C -22.382625 46.119875 -22.857625 45.319875 -23.088875 44.81675 C -23.320125 44.3105 -23.588875 43.488625 -23.68575 42.976125 C -23.788875 42.463625 -23.842 41.632375 -23.81075 41.119875 C -23.78575 40.607375 -23.6295 39.788625 -23.47325 39.288625 C -23.31075 38.788625 -22.951375 37.994875 -22.670125 37.513625 C -22.388875 37.038625 -21.83575 36.288625 -21.442 35.838625 C -21.042 35.388625 -20.307625 34.694875 -19.8045 34.288625 C -19.301375 33.87925 -18.401375 33.257375 -17.8045 32.898 C -17.201375 32.5355 -16.167 31.994875 -15.482625 31.69175 C -14.8045 31.382375 -13.645125 30.9355 -12.89825 30.69175 C -12.151375 30.444875 -10.89825 30.098 -10.09825 29.913625 C -9.301375 29.732375 -7.976375 29.49175 -7.145125 29.37925 C -6.31075 29.263625 -4.945125 29.132375 -4.09825 29.0855 C -3.245125 29.04175 -1.867 29.023 -1.013875 29.044875 C -0.163875 29.069875 1.198625 29.1605 2.033 29.25425 C 2.867375 29.34175 4.192375 29.54175 4.992375 29.698 C 5.792375 29.85425 7.054875 30.15425 7.804875 30.373 C 8.558 30.588625 9.729875 30.99175 10.417375 31.263625 C 11.111125 31.538625 12.167375 32.023 12.786125 32.34175 C 13.398625 32.66675 14.329875 33.22925 14.861125 33.598 C 15.386125 33.963625 16.167375 34.588625 16.604875 34.99175 C 17.03925 35.394875 17.661125 36.069875 17.992375 36.498 C 18.323625 36.92925 18.77675 37.644875 19.004875 38.09175 C 19.229875 38.54175 19.508 39.276125 19.62675 39.738625 C 19.742375 40.194875 19.83925 40.94175 19.848625 41.401125 C 19.854875 41.863625 19.77675 42.601125 19.679875 43.051125 C 19.579875 43.50425 19.329875 44.223 19.1205 44.65425 C 18.917375 45.09175 18.504875 45.776125 18.204875 46.1855 C 17.898625 46.601125 17.336125 47.238625 16.942375 47.61675 C 16.548625 47.998 15.8455 48.582375 15.3705 48.919875 C 14.898625 49.2605 14.0705 49.776125 13.52675 50.073 C 12.986125 50.369875 12.054875 50.807375 11.454875 51.05425 C 10.85175 51.30425 9.83925 51.6605 9.1955 51.85425 C 8.55175 52.051125 7.47675 52.319875 6.80175 52.457375 C 6.12675 52.598 5.011125 52.776125 4.317375 52.857375 C 3.62675 52.94175 2.4955 53.026125 1.80175 53.05425 C 1.104875 53.076125 -0.01075 53.073 -0.69825 53.04175 C -1.382625 53.0105 -2.47325 52.91675 -3.132625 52.832375 C -3.792 52.748 -4.83575 52.569875 -5.457625 52.432375 C -6.082625 52.301125 -7.051375 52.04175 -7.62325 51.857375 C -8.19825 51.676125 -9.082625 51.348 -9.59825 51.123 C -10.113875 50.898 -10.888875 50.50425 -11.33575 50.24175 C -11.78575 49.982375 -12.445125 49.5355 -12.817 49.244875 C -13.18575 48.951125 -13.717 48.463625 -14.007625 48.148 C -14.295125 47.8355 -14.695125 47.3105 -14.901375 46.97925 C -15.1045 46.651125 -15.363875 46.107375 -15.4795 45.769875 C -15.592 45.42925 -15.707625 44.873 -15.738875 44.5355 C -15.763875 44.19175 -15.738875 43.644875 -15.6795 43.307375 C -15.620125 42.973 -15.457625 42.4355 -15.317 42.113625 C -15.170125 41.788625 -14.8795 41.276125 -14.6545 40.973 C -14.43575 40.663625 -14.020125 40.19175 -13.726375 39.9105 C -13.432625 39.62925 -12.901375 39.194875 -12.545125 38.944875 C -12.18575 38.694875 -11.56075 38.31675 -11.14825 38.098 C -10.732625 37.87925 -10.02325 37.557375 -9.567 37.37925 C -9.1045 37.198 -8.326375 36.944875 -7.832625 36.807375 C -7.33575 36.66675 -6.51075 36.47925 -5.992 36.3855 C -5.467 36.288625 -4.613875 36.169875 -4.076375 36.119875 C -3.542 36.069875 -2.670125 36.023 -2.13575 36.013625 C -1.59825 36.007375 -0.732625 36.02925 -0.201375 36.06675 C 0.329875 36.10425 1.167375 36.198 1.679875 36.276125 C 2.192375 36.351125 2.9955 36.5105 3.479875 36.623 C 3.961125 36.74175 4.711125 36.9605 5.158 37.113625 C 5.60175 37.263625 6.28925 37.54175 6.68925 37.726125 C 7.086125 37.9105 7.692375 38.232375 8.03925 38.444875 C 8.386125 38.65425 8.908 39.019875 9.1955 39.25425 C 9.486125 39.49175 9.90175 39.8855 10.129875 40.138625 C 10.361125 40.388625 10.67675 40.807375 10.83925 41.073 C 11.004875 41.3355 11.211125 41.773 11.308 42.04175 C 11.408 42.3105 11.511125 42.75425 11.542375 43.023 C 11.573625 43.294875 11.5705 43.732375 11.53925 43.998 C 11.504875 44.269875 11.398625 44.694875 11.30175 44.948 C 11.208 45.207375 11.004875 45.613625 10.85175 45.857375 C 10.698625 46.101125 10.408 46.47925 10.198625 46.701125 C 9.992375 46.92925 9.6205 47.273 9.367375 47.476125 C 9.11425 47.67925 8.667375 47.988625 8.37675 48.163625 C 8.083 48.338625 7.579875 48.601125 7.254875 48.748 C 6.92675 48.898 6.37675 49.113625 6.023625 49.22925 C 5.673625 49.351125 5.08925 49.513625 4.723625 49.601125 C 4.35175 49.6855 3.75175 49.801125 3.3705 49.85425 C 2.9955 49.9105 2.383 49.973 2.008 49.994875 C 1.629875 50.019875 1.023625 50.026125 0.65175 50.019875 C 0.286125 50.0105 -0.301375 49.976125 -0.6545 49.9355 C -1.01075 49.898 -1.570125 49.81675 -1.901375 49.748 C -2.232625 49.6855 -2.7545 49.5605 -3.057625 49.473 C -3.363875 49.382375 -3.832625 49.223 -4.1045 49.107375 C -4.37325 48.998 -4.788875 48.801125 -5.02325 48.669875 C -5.257625 48.54175 -5.601375 48.319875 -5.795125 48.176125 C -5.992 48.02925 -6.270125 47.7855 -6.420125 47.632375 C -6.570125 47.476125 -6.776375 47.21675 -6.882625 47.057375 C -6.992 46.898 -7.12325 46.632375 -7.18575 46.46675 C -7.245125 46.301125 -7.31075 46.0355 -7.326375 45.869875 C -7.342 45.707375 -7.33575 45.44175 -7.31075 45.27925 C -7.28575 45.119875 -7.21075 44.869875 -7.14825 44.71675 C -7.082625 44.56675 -6.945125 44.326125 -6.842 44.1855 C -6.742 44.044875 -6.551375 43.826125 -6.417 43.701125 C -6.2795 43.573 -6.038875 43.37925 -5.8795 43.263625 C -5.717 43.151125 -5.432625 42.988625 -5.24825 42.888625 C -5.067 42.794875 -4.74825 42.6605 -4.551375 42.5855 C -4.34825 42.507375 -4.007625 42.401125 -3.792 42.348 C -3.582625 42.29175 -3.2295 42.21675 -3.007625 42.17925 C -2.788875 42.144875 -2.4295 42.101125 -2.207625 42.0855 C -1.988875 42.069875 -1.632625 42.057375 -1.413875 42.057375 C -1.19825 42.0605 -0.851375 42.082375 -0.645125 42.101125 C -0.43575 42.119875 -0.107625 42.16675 0.083 42.201125 C 0.27675 42.238625 0.579875 42.3105 0.758 42.363625 C 0.933 42.413625 1.204875 42.507375 1.361125 42.569875 C 1.5205 42.632375 1.754875 42.74175 1.886125 42.81675 C 2.0205 42.888625 2.2205 43.013625 2.329875 43.098 C 2.43925 43.176125 2.5955 43.3105 2.67675 43.398 C 2.761125 43.482375 2.87675 43.62925 2.933 43.713625 C 2.992375 43.80425 3.06425 43.944875 3.0955 44.0355 C 3.129875 44.123 3.161125 44.263625 3.167375 44.351125 C 3.17675 44.4355 3.167375 44.573 3.158 44.65425 C 3.142375 44.738625 3.098625 44.863625 3.067375 44.94175 C 3.033 45.013625 2.958 45.132375 2.908 45.198 C 2.854875 45.263625 2.758 45.36675 2.692375 45.426125 C 2.62675 45.482375 2.504875 45.569875 2.42675 45.61675 C 2.35175 45.663625 2.2205 45.72925 2.133 45.769875 C 2.048625 45.807375 1.908 45.857375 1.817375 45.8855 C 1.72675 45.9105 1.583 45.944875 1.492375 45.9605 C 1.40175 45.976125 1.261125 45.99175 1.17675 45.994875 C 1.08925 45.998 0.954875 45.998 0.87675 45.994875 C 0.792375 45.988625 0.673625 45.976125 0.60175 45.9605 C 0.52675 45.948 0.423625 45.919875 0.36425 45.901125 C 0.304875 45.882375 0.2205 45.84175 0.173625 45.819875 C 0.12675 45.79175 0.06425 45.744875 0.02675 45.71675 C -0.0045 45.6855 -0.042 45.638625 -0.057625 45.607375 C -0.07325 45.576125 -0.088875 45.523 -0.092 45.49175 C -0.092 45.4605 -0.08575 45.4105 -0.070125 45.382375 C -0.057625 45.351125 0.00175 45.27925 0.00175 45.27925 " transform="matrix(1.25,0,0,-1.25,413.74,116.4975)"/>
<path style="fill:none;stroke-width:0.3985;stroke-linecap:butt;stroke-linejoin:miter;stroke:rgb(0%,0%,0%);stroke-opacity:1;stroke-miterlimit:10;" d="M 0.00175 45.27925 L 0.00175 64.3355 " transform="matrix(1.25,0,0,-1.25,413.74,116.4975)"/>
<path style=" stroke:none;fill-rule:nonzero;fill:rgb(0%,0%,0%);fill-opacity:1;" d="M 413.742188 31.597656 C 413.492188 32.925781 412.742188 35.082031 411.871094 36.578125 L 415.609375 36.578125 C 414.734375 35.082031 413.988281 32.925781 413.742188 31.597656 "/>
<path style=" stroke:none;fill-rule:nonzero;fill:rgb(0%,0%,0%);fill-opacity:1;" d="M 396.515625 34.566406 L 398.253906 26.421875 C 398.351562 25.992188 398.292969 25.777344 397.746094 25.777344 L 397.042969 25.777344 C 396.535156 25.777344 396.359375 25.953125 396.242188 26.421875 L 395.558594 29.664062 L 391.242188 29.664062 L 391.925781 26.421875 C 392.023438 25.992188 391.984375 25.777344 391.417969 25.777344 L 390.714844 25.777344 C 390.226562 25.777344 390.03125 25.914062 389.914062 26.421875 L 388.175781 34.566406 C 388.097656 35.074219 388.195312 35.230469 388.703125 35.230469 L 389.40625 35.230469 C 389.914062 35.230469 390.089844 35.054688 390.1875 34.566406 L 390.96875 30.953125 L 395.285156 30.953125 L 394.503906 34.566406 C 394.40625 35.015625 394.464844 35.230469 395.03125 35.230469 L 395.714844 35.230469 C 396.242188 35.230469 396.417969 35.054688 396.515625 34.566406 Z M 396.515625 34.566406 "/>
<path style=" stroke:none;fill-rule:nonzero;fill:rgb(0%,0%,0%);fill-opacity:1;" d="M 402.132812 34.828125 C 402.132812 34.960938 402.097656 35.050781 402.035156 35.101562 C 401.980469 35.15625 401.910156 35.179688 401.820312 35.179688 L 398.949219 35.179688 C 398.949219 35.429688 398.96875 35.648438 399.007812 35.84375 C 399.058594 36.039062 399.144531 36.210938 399.261719 36.351562 C 399.378906 36.496094 399.527344 36.605469 399.710938 36.683594 C 399.890625 36.75 400.113281 36.78125 400.375 36.78125 C 400.582031 36.78125 400.765625 36.769531 400.921875 36.742188 C 401.089844 36.703125 401.234375 36.664062 401.351562 36.625 C 401.46875 36.574219 401.566406 36.535156 401.644531 36.507812 C 401.722656 36.46875 401.78125 36.449219 401.820312 36.449219 C 401.84375 36.449219 401.863281 36.457031 401.878906 36.46875 C 401.902344 36.484375 401.917969 36.503906 401.917969 36.527344 C 401.929688 36.542969 401.9375 36.574219 401.9375 36.625 C 401.949219 36.664062 401.957031 36.710938 401.957031 36.761719 C 401.957031 36.800781 401.949219 36.839844 401.9375 36.878906 C 401.9375 36.90625 401.9375 36.933594 401.9375 36.957031 C 401.9375 36.984375 401.929688 37.011719 401.917969 37.035156 C 401.902344 37.050781 401.882812 37.070312 401.859375 37.09375 C 401.84375 37.109375 401.792969 37.132812 401.703125 37.171875 C 401.625 37.210938 401.511719 37.25 401.371094 37.289062 C 401.226562 37.328125 401.0625 37.355469 400.882812 37.386719 C 400.699219 37.425781 400.503906 37.445312 400.296875 37.445312 C 399.929688 37.445312 399.613281 37.390625 399.339844 37.289062 C 399.066406 37.1875 398.835938 37.035156 398.65625 36.839844 C 398.472656 36.644531 398.328125 36.398438 398.226562 36.097656 C 398.132812 35.800781 398.089844 35.449219 398.089844 35.042969 C 398.089844 34.667969 398.132812 34.328125 398.226562 34.027344 C 398.328125 33.730469 398.472656 33.476562 398.65625 33.265625 C 398.851562 33.058594 399.078125 32.894531 399.339844 32.777344 C 399.597656 32.660156 399.886719 32.601562 400.199219 32.601562 C 400.550781 32.601562 400.84375 32.660156 401.078125 32.777344 C 401.324219 32.882812 401.527344 33.03125 401.683594 33.226562 C 401.839844 33.410156 401.949219 33.632812 402.015625 33.890625 C 402.09375 34.140625 402.132812 34.40625 402.132812 34.691406 Z M 401.332031 34.59375 C 401.34375 34.179688 401.246094 33.851562 401.039062 33.617188 C 400.84375 33.371094 400.554688 33.246094 400.179688 33.246094 C 399.96875 33.246094 399.789062 33.285156 399.632812 33.363281 C 399.488281 33.429688 399.363281 33.527344 399.261719 33.65625 C 399.167969 33.773438 399.089844 33.917969 399.027344 34.085938 C 398.972656 34.242188 398.949219 34.414062 398.949219 34.59375 Z M 401.332031 34.59375 "/>
<path style=" stroke:none;fill-rule:nonzero;fill:rgb(0%,0%,0%);fill-opacity:1;" d="M 408.457031 31.019531 C 408.457031 31.125 408.445312 31.203125 408.4375 31.253906 C 408.421875 31.292969 408.386719 31.3125 408.339844 31.3125 C 408.308594 31.3125 408.28125 31.308594 408.242188 31.292969 C 408.210938 31.28125 408.171875 31.269531 408.125 31.253906 C 408.070312 31.230469 408.011719 31.210938 407.949219 31.195312 C 407.878906 31.183594 407.8125 31.175781 407.734375 31.175781 C 407.484375 31.175781 407.308594 31.261719 407.207031 31.429688 C 407.113281 31.585938 407.070312 31.847656 407.070312 32.210938 L 407.070312 32.699219 L 408.046875 32.699219 C 408.070312 32.699219 408.089844 32.707031 408.105469 32.71875 C 408.128906 32.734375 408.148438 32.753906 408.164062 32.777344 C 408.1875 32.804688 408.203125 32.84375 408.203125 32.894531 C 408.210938 32.933594 408.222656 32.980469 408.222656 33.03125 C 408.222656 33.148438 408.203125 33.234375 408.164062 33.285156 C 408.132812 33.339844 408.09375 33.363281 408.046875 33.363281 L 407.070312 33.363281 L 407.070312 37.230469 C 407.070312 37.257812 407.058594 37.277344 407.050781 37.289062 C 407.035156 37.304688 407.011719 37.324219 406.972656 37.347656 C 406.941406 37.355469 406.902344 37.367188 406.855469 37.367188 C 406.800781 37.375 406.738281 37.386719 406.660156 37.386719 C 406.582031 37.386719 406.511719 37.375 406.464844 37.367188 C 406.410156 37.367188 406.371094 37.355469 406.347656 37.347656 C 406.316406 37.324219 406.296875 37.304688 406.289062 37.289062 C 406.273438 37.277344 406.269531 37.257812 406.269531 37.230469 L 406.269531 33.363281 L 404.296875 33.363281 L 404.296875 37.230469 C 404.296875 37.257812 404.285156 37.277344 404.277344 37.289062 C 404.261719 37.304688 404.238281 37.324219 404.199219 37.347656 C 404.167969 37.355469 404.128906 37.367188 404.082031 37.367188 C 404.027344 37.375 403.964844 37.386719 403.886719 37.386719 C 403.808594 37.386719 403.738281 37.375 403.691406 37.367188 C 403.636719 37.367188 403.59375 37.355469 403.554688 37.347656 C 403.523438 37.324219 403.503906 37.304688 403.496094 37.289062 C 403.480469 37.277344 403.476562 37.257812 403.476562 37.230469 L 403.476562 33.363281 L 402.851562 33.363281 C 402.796875 33.363281 402.757812 33.339844 402.734375 33.285156 C 402.703125 33.234375 402.695312 33.148438 402.695312 33.03125 C 402.695312 32.980469 402.695312 32.933594 402.695312 32.894531 C 402.703125 32.84375 402.71875 32.804688 402.734375 32.777344 C 402.742188 32.753906 402.757812 32.734375 402.773438 32.71875 C 402.796875 32.707031 402.820312 32.699219 402.851562 32.699219 L 403.476562 32.699219 L 403.476562 32.289062 C 403.476562 31.992188 403.5 31.730469 403.554688 31.507812 C 403.617188 31.289062 403.710938 31.113281 403.828125 30.980469 C 403.945312 30.839844 404.085938 30.734375 404.257812 30.667969 C 404.4375 30.605469 404.648438 30.570312 404.882812 30.570312 C 405.023438 30.570312 405.144531 30.585938 405.253906 30.609375 C 405.355469 30.625 405.4375 30.648438 405.507812 30.6875 C 405.546875 30.703125 405.570312 30.722656 405.585938 30.746094 C 405.609375 30.761719 405.628906 30.78125 405.644531 30.804688 C 405.652344 30.832031 405.664062 30.871094 405.664062 30.921875 C 405.671875 30.960938 405.683594 31.015625 405.683594 31.078125 C 405.683594 31.183594 405.667969 31.261719 405.644531 31.3125 C 405.628906 31.351562 405.605469 31.371094 405.566406 31.371094 C 405.535156 31.371094 405.507812 31.367188 405.46875 31.351562 C 405.4375 31.339844 405.398438 31.328125 405.351562 31.3125 C 405.296875 31.289062 405.238281 31.269531 405.175781 31.253906 C 405.105469 31.242188 405.027344 31.234375 404.941406 31.234375 C 404.707031 31.234375 404.535156 31.320312 404.433594 31.488281 C 404.339844 31.644531 404.296875 31.90625 404.296875 32.269531 L 404.296875 32.699219 L 406.269531 32.699219 L 406.269531 32.230469 C 406.269531 31.933594 406.292969 31.671875 406.347656 31.449219 C 406.410156 31.230469 406.503906 31.054688 406.621094 30.921875 C 406.738281 30.78125 406.878906 30.675781 407.050781 30.609375 C 407.230469 30.546875 407.429688 30.511719 407.65625 30.511719 C 407.796875 30.511719 407.917969 30.527344 408.027344 30.550781 C 408.144531 30.566406 408.230469 30.589844 408.300781 30.628906 C 408.324219 30.644531 408.347656 30.664062 408.378906 30.6875 C 408.402344 30.703125 408.417969 30.722656 408.417969 30.746094 C 408.425781 30.773438 408.4375 30.8125 408.4375 30.863281 C 408.445312 30.902344 408.457031 30.957031 408.457031 31.019531 Z M 408.457031 31.019531 "/>
<path style="fill:none;stroke-width:0.3985;stroke-linecap:butt;stroke-linejoin:miter;stroke:rgb(0%,0%,0%);stroke-opacity:1;stroke-miterlimit:10;" d="M 0.00175 -0.002 L 26.298625 20.776125 " transform="matrix(1.25,0,0,-1.25,413.74,116.4975)"/>
<path style=" stroke:none;fill-rule:nonzero;fill:rgb(0%,0%,0%);fill-opacity:1;" d="M 450.125 87.742188 C 448.929688 88.375 446.777344 89.125 445.0625 89.371094 L 447.378906 92.300781 C 448.007812 90.6875 449.242188 88.765625 450.125 87.742188 "/>
<path style=" stroke:none;fill-rule:nonzero;fill:rgb(0%,0%,0%);fill-opacity:1;" d="M 447.859375 104.582031 L 448.660156 100.8125 C 448.953125 99.40625 448.484375 98.859375 447.078125 98.859375 C 446.121094 98.859375 445.28125 99.308594 444.597656 100.207031 C 444.65625 98.898438 443.503906 98.859375 442.9375 98.859375 C 442.664062 98.859375 442.097656 98.859375 441.394531 99.308594 C 440.90625 99.621094 440.535156 100.050781 440.398438 100.265625 L 440.378906 100.265625 L 440.515625 99.582031 C 440.613281 99.132812 440.574219 98.917969 440.007812 98.917969 L 439.539062 98.917969 C 439.050781 98.917969 438.855469 99.074219 438.738281 99.582031 L 437.683594 104.582031 C 437.585938 105.089844 437.703125 105.246094 438.191406 105.246094 L 438.738281 105.246094 C 439.265625 105.246094 439.441406 105.070312 439.539062 104.582031 L 440.183594 101.574219 C 440.4375 100.34375 441.375 99.835938 442.039062 99.835938 C 442.703125 99.835938 442.800781 100.128906 442.644531 100.851562 L 441.84375 104.582031 C 441.746094 105.089844 441.84375 105.246094 442.351562 105.246094 L 442.898438 105.246094 C 443.425781 105.246094 443.601562 105.070312 443.699219 104.582031 L 444.324219 101.574219 C 444.597656 100.34375 445.535156 99.835938 446.199219 99.835938 C 446.863281 99.835938 446.941406 100.128906 446.804688 100.851562 L 446.003906 104.582031 C 445.90625 105.089844 446.003906 105.246094 446.511719 105.246094 L 447.058594 105.246094 C 447.585938 105.246094 447.761719 105.070312 447.859375 104.582031 Z M 447.859375 104.582031 "/>
</g>
</svg>
