<?xml version="1.0" encoding="UTF-8"?>
<svg xmlns="http://www.w3.org/2000/svg" xmlns:xlink="http://www.w3.org/1999/xlink" width="199pt" height="80pt" viewBox="0 0 199 80" version="1.1">
<g id="surface1">
<path style=" stroke:none;fill-rule:nonzero;fill:rgb(13.729858%,12.159729%,12.548828%);fill-opacity:1;" d="M 33.597656 21.066406 L 33.597656 77.515625 C 33.597656 78.296875 33.207031 78.691406 32.421875 78.691406 L 24.359375 78.691406 C 23.574219 78.691406 23.183594 78.296875 23.183594 77.515625 L 23.183594 50.96875 L 17.640625 72.640625 C 17.527344 72.921875 17.386719 73.0625 17.21875 73.0625 C 17.050781 73.0625 16.910156 72.921875 16.800781 72.640625 L 11.257812 50.96875 L 11.257812 77.515625 C 11.257812 78.296875 10.863281 78.691406 10.082031 78.691406 L 2.015625 78.691406 C 1.230469 78.691406 0.839844 78.296875 0.839844 77.515625 L 0.839844 21.066406 C 0.839844 20.28125 1.230469 19.890625 2.015625 19.890625 L 9.15625 19.890625 C 9.492188 19.890625 9.785156 20.019531 10.039062 20.269531 C 10.289062 20.519531 10.46875 20.785156 10.582031 21.066406 L 17.21875 51.136719 L 23.855469 21.066406 C 23.96875 20.785156 24.148438 20.519531 24.402344 20.269531 C 24.65625 20.019531 24.949219 19.890625 25.285156 19.890625 L 32.421875 19.890625 C 33.207031 19.890625 33.597656 20.28125 33.597656 21.066406 "/>
<path style=" stroke:none;fill-rule:nonzero;fill:rgb(13.729858%,12.159729%,12.548828%);fill-opacity:1;" d="M 65.519531 77.515625 C 65.628906 78.296875 65.292969 78.691406 64.511719 78.691406 L 56.867188 78.691406 C 56.136719 78.691406 55.71875 78.296875 55.609375 77.515625 L 54.933594 69.28125 L 49.726562 69.28125 L 49.054688 77.515625 C 48.941406 78.296875 48.523438 78.691406 47.792969 78.691406 L 40.152344 78.691406 C 39.367188 78.691406 39.03125 78.296875 39.144531 77.515625 L 45.441406 29.464844 C 45.554688 28.679688 46.003906 28.289062 46.785156 28.289062 L 57.875 28.289062 C 58.65625 28.289062 59.105469 28.679688 59.21875 29.464844 Z M 54.261719 59.875 L 52.667969 41.3125 L 51.996094 41.3125 L 50.398438 59.875 Z M 54.261719 59.875 "/>
<path style=" stroke:none;fill-rule:nonzero;fill:rgb(13.729858%,12.159729%,12.548828%);fill-opacity:1;" d="M 88.113281 28.542969 C 89.402344 29.101562 90.519531 29.859375 91.472656 30.8125 C 92.425781 31.761719 93.179688 32.882812 93.742188 34.171875 C 94.300781 35.460938 94.582031 36.832031 94.582031 38.285156 L 94.582031 40.132812 C 94.582031 40.917969 94.21875 41.421875 93.488281 41.644531 L 85.847656 44.417969 C 85.117188 44.644531 84.753906 44.363281 84.753906 43.578125 L 84.753906 38.707031 C 84.753906 38.144531 84.558594 37.671875 84.164062 37.277344 C 83.773438 36.886719 83.296875 36.691406 82.738281 36.691406 L 82.066406 36.691406 C 81.503906 36.691406 81.027344 36.886719 80.636719 37.277344 C 80.246094 37.671875 80.050781 38.144531 80.050781 38.707031 L 80.050781 68.273438 C 80.050781 68.835938 80.246094 69.3125 80.636719 69.699219 C 81.027344 70.09375 81.503906 70.289062 82.066406 70.289062 L 82.738281 70.289062 C 83.296875 70.289062 83.773438 70.09375 84.164062 69.699219 C 84.558594 69.3125 84.753906 68.835938 84.753906 68.273438 L 84.753906 59.199219 L 82.402344 59.199219 L 82.402344 49.625 L 93.40625 49.625 C 94.191406 49.625 94.582031 50.019531 94.582031 50.800781 L 94.582031 68.695312 C 94.582031 70.152344 94.300781 71.523438 93.742188 72.8125 C 93.179688 74.101562 92.425781 75.21875 91.472656 76.171875 C 90.519531 77.121094 89.402344 77.878906 88.113281 78.4375 C 86.824219 78.996094 85.453125 79.277344 83.996094 79.277344 L 80.804688 79.277344 C 79.347656 79.277344 77.980469 78.996094 76.691406 78.4375 C 75.402344 77.878906 74.28125 77.121094 73.328125 76.171875 C 72.375 75.21875 71.621094 74.101562 71.0625 72.8125 C 70.5 71.523438 70.222656 70.152344 70.222656 68.695312 L 70.222656 38.285156 C 70.222656 36.832031 70.5 35.460938 71.0625 34.171875 C 71.621094 32.882812 72.375 31.761719 73.328125 30.8125 C 74.28125 29.859375 75.402344 29.101562 76.691406 28.542969 C 77.980469 27.984375 79.347656 27.699219 80.804688 27.699219 L 83.996094 27.699219 C 85.453125 27.699219 86.824219 27.984375 88.113281 28.542969 "/>
<path style=" stroke:none;fill-rule:nonzero;fill:rgb(13.729858%,12.159729%,12.548828%);fill-opacity:1;" d="M 128.179688 21.066406 L 128.179688 77.515625 C 128.179688 78.296875 127.789062 78.691406 127.003906 78.691406 L 121.628906 78.691406 C 121.292969 78.691406 120.96875 78.578125 120.660156 78.355469 C 120.355469 78.132812 120.144531 77.878906 120.03125 77.597656 L 111.128906 49.792969 L 111.128906 77.515625 C 111.128906 78.296875 110.738281 78.691406 109.953125 78.691406 L 102.476562 78.691406 C 101.691406 78.691406 101.300781 78.296875 101.300781 77.515625 L 101.300781 21.066406 C 101.300781 20.28125 101.691406 19.890625 102.476562 19.890625 L 108.019531 19.890625 C 108.359375 19.890625 108.679688 20.003906 108.988281 20.226562 C 109.292969 20.453125 109.503906 20.703125 109.617188 20.980469 L 118.351562 47.945312 L 118.351562 21.066406 C 118.351562 20.28125 118.746094 19.890625 119.527344 19.890625 L 127.003906 19.890625 C 127.789062 19.890625 128.179688 20.28125 128.179688 21.066406 "/>
<path style=" stroke:none;fill-rule:nonzero;fill:rgb(13.729858%,12.159729%,12.548828%);fill-opacity:1;" d="M 159.257812 29.464844 L 159.257812 68.695312 C 159.257812 70.152344 158.976562 71.523438 158.421875 72.8125 C 157.859375 74.101562 157.101562 75.21875 156.152344 76.171875 C 155.199219 77.125 154.078125 77.878906 152.789062 78.4375 C 151.503906 78.996094 150.132812 79.277344 148.675781 79.277344 L 145.484375 79.277344 C 144.027344 79.277344 142.65625 78.996094 141.367188 78.4375 C 140.078125 77.878906 138.957031 77.125 138.007812 76.171875 C 137.054688 75.21875 136.300781 74.101562 135.738281 72.8125 C 135.179688 71.523438 134.898438 70.152344 134.898438 68.695312 L 134.898438 29.464844 C 134.898438 28.683594 135.289062 28.289062 136.074219 28.289062 L 143.550781 28.289062 C 144.335938 28.289062 144.726562 28.683594 144.726562 29.464844 L 144.726562 68.273438 C 144.726562 68.835938 144.921875 69.3125 145.316406 69.699219 C 145.707031 70.09375 146.183594 70.289062 146.746094 70.289062 L 147.414062 70.289062 C 147.972656 70.289062 148.449219 70.09375 148.84375 69.699219 C 149.234375 69.3125 149.429688 68.835938 149.429688 68.273438 L 149.429688 29.464844 C 149.429688 28.683594 149.824219 28.289062 150.605469 28.289062 L 158.082031 28.289062 C 158.867188 28.289062 159.257812 28.683594 159.257812 29.464844 "/>
<path style=" stroke:none;fill-rule:nonzero;fill:rgb(13.729858%,12.159729%,12.548828%);fill-opacity:1;" d="M 198.738281 29.464844 L 198.738281 77.515625 C 198.738281 78.300781 198.34375 78.691406 197.5625 78.691406 L 189.5 78.691406 C 188.714844 78.691406 188.324219 78.300781 188.324219 77.515625 L 188.324219 55.171875 L 182.777344 75.164062 C 182.664062 75.441406 182.527344 75.582031 182.359375 75.582031 C 182.1875 75.582031 182.046875 75.441406 181.9375 75.164062 L 176.394531 55.171875 L 176.394531 77.515625 C 176.394531 78.300781 176.003906 78.691406 175.21875 78.691406 L 167.152344 78.691406 C 166.367188 78.691406 165.976562 78.300781 165.976562 77.515625 L 165.976562 29.464844 C 165.976562 28.683594 166.367188 28.289062 167.152344 28.289062 L 174.292969 28.289062 C 174.628906 28.289062 174.921875 28.414062 175.175781 28.667969 C 175.425781 28.921875 175.609375 29.1875 175.722656 29.464844 L 182.359375 55.339844 L 188.992188 29.464844 C 189.105469 29.1875 189.289062 28.921875 189.539062 28.667969 C 189.792969 28.414062 190.085938 28.289062 190.421875 28.289062 L 197.5625 28.289062 C 198.34375 28.289062 198.738281 28.683594 198.738281 29.464844 "/>
<path style=" stroke:none;fill-rule:nonzero;fill:rgb(97.50824%,65.449524%,16.833496%);fill-opacity:1;" d="M 100.507812 0.988281 L 85.710938 44.503906 L 97.109375 40.332031 L 96.566406 55.460938 L 104.589844 31.238281 L 94.355469 35.925781 Z M 100.507812 0.988281 "/>
</g>
</svg>
